%TF.GenerationSoftware,KiCad,Pcbnew,5.1.8-db9833491~88~ubuntu20.04.1*%
%TF.CreationDate,2020-12-19T13:22:12+05:30*%
%TF.ProjectId,SparkFun_APDS-9960_RGB_and_Gesture_Sensor,53706172-6b46-4756-9e5f-415044532d39,rev?*%
%TF.SameCoordinates,Original*%
%TF.FileFunction,Copper,L2,Bot*%
%TF.FilePolarity,Positive*%
%FSLAX46Y46*%
G04 Gerber Fmt 4.6, Leading zero omitted, Abs format (unit mm)*
G04 Created by KiCad (PCBNEW 5.1.8-db9833491~88~ubuntu20.04.1) date 2020-12-19 13:22:12*
%MOMM*%
%LPD*%
G01*
G04 APERTURE LIST*
%TA.AperFunction,ComponentPad*%
%ADD10C,1.879600*%
%TD*%
%TA.AperFunction,ViaPad*%
%ADD11C,0.800000*%
%TD*%
%TA.AperFunction,Conductor*%
%ADD12C,0.762000*%
%TD*%
%TA.AperFunction,Conductor*%
%ADD13C,0.250000*%
%TD*%
%TA.AperFunction,Conductor*%
%ADD14C,0.254000*%
%TD*%
%TA.AperFunction,Conductor*%
%ADD15C,0.127000*%
%TD*%
%TA.AperFunction,Conductor*%
%ADD16C,0.100000*%
%TD*%
G04 APERTURE END LIST*
D10*
%TO.P,JP1,6*%
%TO.N,/INT*%
X140970000Y-95250000D03*
%TO.P,JP1,5*%
%TO.N,/SCL*%
X138430000Y-95250000D03*
%TO.P,JP1,4*%
%TO.N,/SDA*%
X135890000Y-95250000D03*
%TO.P,JP1,3*%
%TO.N,VCC*%
X133350000Y-95250000D03*
%TO.P,JP1,2*%
%TO.N,GND*%
X130810000Y-95250000D03*
%TO.P,JP1,1*%
%TO.N,/VL*%
X128270000Y-95250000D03*
%TD*%
D11*
%TO.N,GND*%
X129057400Y-87122000D03*
X132892800Y-82550000D03*
X139700000Y-93980000D03*
X134620000Y-93980000D03*
X132080000Y-93980000D03*
X129540000Y-93980000D03*
X138684000Y-88950800D03*
X138684000Y-92887800D03*
X140614400Y-90932000D03*
%TO.N,VCC*%
X139827000Y-85979000D03*
X140182600Y-82550000D03*
X129032000Y-82550000D03*
X130214000Y-83654000D03*
X129032000Y-83642200D03*
%TO.N,/SDA*%
X135305800Y-78943200D03*
X135345000Y-84836000D03*
%TO.N,/SCL*%
X133019800Y-80797400D03*
X136093200Y-87122000D03*
%TO.N,/INT*%
X140970000Y-88214200D03*
%TD*%
D12*
%TO.N,VCC*%
X140182600Y-82550000D02*
X140182600Y-83591400D01*
X140182600Y-83591400D02*
X139827000Y-83947000D01*
X139827000Y-85979000D02*
X139827000Y-83947000D01*
X133350000Y-95250000D02*
X133350000Y-85725000D01*
X131279000Y-83654000D02*
X130214000Y-83654000D01*
X133350000Y-85725000D02*
X131279000Y-83654000D01*
X129032000Y-82550000D02*
X129032000Y-83642200D01*
X130214000Y-83654000D02*
X129043800Y-83654000D01*
X129043800Y-83654000D02*
X129032000Y-83642200D01*
D13*
%TO.N,/SDA*%
X135305800Y-93522800D02*
X135305800Y-78943200D01*
X135890000Y-94107000D02*
X135305800Y-93522800D01*
X135890000Y-95250000D02*
X135890000Y-94107000D01*
%TO.N,/SCL*%
X135686800Y-78028800D02*
X136093200Y-78435200D01*
X134747000Y-78028800D02*
X135686800Y-78028800D01*
X134239000Y-78536800D02*
X134747000Y-78028800D01*
X133959600Y-80797400D02*
X134239000Y-80518000D01*
X134239000Y-80518000D02*
X134239000Y-78536800D01*
X133019800Y-80797400D02*
X133959600Y-80797400D01*
X136093200Y-78435200D02*
X136093200Y-87122000D01*
X136093200Y-92913200D02*
X138430000Y-95250000D01*
X136093200Y-87122000D02*
X136093200Y-92913200D01*
D14*
%TO.N,/INT*%
X141757400Y-94462600D02*
X140970000Y-95250000D01*
X141757400Y-89001600D02*
X141757400Y-94462600D01*
X140970000Y-88214200D02*
X141757400Y-89001600D01*
%TD*%
D15*
%TO.N,GND*%
X137579082Y-76999408D02*
X137280262Y-77446623D01*
X137074431Y-77943542D01*
X136969500Y-78471069D01*
X136969500Y-79008931D01*
X137074431Y-79536458D01*
X137280262Y-80033377D01*
X137579082Y-80480592D01*
X137959408Y-80860918D01*
X138406623Y-81159738D01*
X138903542Y-81365569D01*
X139431069Y-81470500D01*
X139968931Y-81470500D01*
X140496458Y-81365569D01*
X140993377Y-81159738D01*
X141440592Y-80860918D01*
X141808201Y-80493309D01*
X141808200Y-88351941D01*
X141738300Y-88282040D01*
X141738300Y-88138529D01*
X141708774Y-87990095D01*
X141650858Y-87850274D01*
X141566777Y-87724438D01*
X141459762Y-87617423D01*
X141333926Y-87533342D01*
X141194105Y-87475426D01*
X141045671Y-87445900D01*
X140894329Y-87445900D01*
X140745895Y-87475426D01*
X140606074Y-87533342D01*
X140480238Y-87617423D01*
X140373223Y-87724438D01*
X140289142Y-87850274D01*
X140231226Y-87990095D01*
X140201700Y-88138529D01*
X140201700Y-88289871D01*
X140231226Y-88438305D01*
X140289142Y-88578126D01*
X140373223Y-88703962D01*
X140480238Y-88810977D01*
X140606074Y-88895058D01*
X140745895Y-88952974D01*
X140894329Y-88982500D01*
X141037840Y-88982500D01*
X141262100Y-89206760D01*
X141262101Y-93974376D01*
X141098837Y-93941900D01*
X140841163Y-93941900D01*
X140588441Y-93992170D01*
X140350382Y-94090777D01*
X140136135Y-94233933D01*
X139953933Y-94416135D01*
X139810777Y-94630382D01*
X139712170Y-94868441D01*
X139700000Y-94929623D01*
X139687830Y-94868441D01*
X139589223Y-94630382D01*
X139446067Y-94416135D01*
X139263865Y-94233933D01*
X139049618Y-94090777D01*
X138811559Y-93992170D01*
X138558837Y-93941900D01*
X138301163Y-93941900D01*
X138048441Y-93992170D01*
X137922123Y-94044492D01*
X136586500Y-92708870D01*
X136586500Y-87715239D01*
X136689977Y-87611762D01*
X136774058Y-87485926D01*
X136831974Y-87346105D01*
X136861500Y-87197671D01*
X136861500Y-87046329D01*
X136831974Y-86897895D01*
X136774058Y-86758074D01*
X136689977Y-86632238D01*
X136586500Y-86528761D01*
X136586500Y-85903329D01*
X139058700Y-85903329D01*
X139058700Y-86054671D01*
X139088226Y-86203105D01*
X139146142Y-86342926D01*
X139230223Y-86468762D01*
X139337238Y-86575777D01*
X139463074Y-86659858D01*
X139602895Y-86717774D01*
X139751329Y-86747300D01*
X139902671Y-86747300D01*
X140051105Y-86717774D01*
X140190926Y-86659858D01*
X140316762Y-86575777D01*
X140423777Y-86468762D01*
X140507858Y-86342926D01*
X140565774Y-86203105D01*
X140595300Y-86054671D01*
X140595300Y-85903329D01*
X140576300Y-85807812D01*
X140576300Y-84257369D01*
X140686406Y-84147263D01*
X140714998Y-84123798D01*
X140808634Y-84009703D01*
X140878212Y-83879532D01*
X140921058Y-83738288D01*
X140931900Y-83628206D01*
X140931900Y-83628197D01*
X140935524Y-83591401D01*
X140931900Y-83554605D01*
X140931900Y-82721188D01*
X140950900Y-82625671D01*
X140950900Y-82474329D01*
X140921374Y-82325895D01*
X140863458Y-82186074D01*
X140779377Y-82060238D01*
X140672362Y-81953223D01*
X140546526Y-81869142D01*
X140406705Y-81811226D01*
X140258271Y-81781700D01*
X140106929Y-81781700D01*
X139958495Y-81811226D01*
X139818674Y-81869142D01*
X139692838Y-81953223D01*
X139585823Y-82060238D01*
X139501742Y-82186074D01*
X139443826Y-82325895D01*
X139414300Y-82474329D01*
X139414300Y-82625671D01*
X139433300Y-82721189D01*
X139433301Y-83281030D01*
X139323189Y-83391142D01*
X139294603Y-83414602D01*
X139271143Y-83443188D01*
X139271140Y-83443191D01*
X139200966Y-83528697D01*
X139131388Y-83658869D01*
X139109911Y-83729671D01*
X139088543Y-83800112D01*
X139080721Y-83879532D01*
X139074076Y-83947000D01*
X139077701Y-83983805D01*
X139077700Y-85807811D01*
X139058700Y-85903329D01*
X136586500Y-85903329D01*
X136586500Y-78459416D01*
X136588885Y-78435199D01*
X136586500Y-78410982D01*
X136586500Y-78410973D01*
X136579362Y-78338496D01*
X136551154Y-78245509D01*
X136513413Y-78174900D01*
X136505348Y-78159811D01*
X136459146Y-78103515D01*
X136443703Y-78084697D01*
X136424882Y-78069251D01*
X136052753Y-77697123D01*
X136037303Y-77678297D01*
X135962188Y-77616652D01*
X135876491Y-77570846D01*
X135783504Y-77542638D01*
X135711027Y-77535500D01*
X135711024Y-77535500D01*
X135686800Y-77533114D01*
X135662576Y-77535500D01*
X134771216Y-77535500D01*
X134746999Y-77533115D01*
X134722782Y-77535500D01*
X134722773Y-77535500D01*
X134650296Y-77542638D01*
X134557309Y-77570846D01*
X134505267Y-77598663D01*
X134471611Y-77616652D01*
X134415314Y-77662854D01*
X134396497Y-77678297D01*
X134381055Y-77697113D01*
X133907318Y-78170852D01*
X133888498Y-78186297D01*
X133873054Y-78205116D01*
X133826852Y-78261412D01*
X133781046Y-78347110D01*
X133752839Y-78440097D01*
X133743314Y-78536800D01*
X133745701Y-78561034D01*
X133745700Y-80304100D01*
X133613039Y-80304100D01*
X133509562Y-80200623D01*
X133383726Y-80116542D01*
X133243905Y-80058626D01*
X133095471Y-80029100D01*
X132944129Y-80029100D01*
X132795695Y-80058626D01*
X132655874Y-80116542D01*
X132530038Y-80200623D01*
X132423023Y-80307638D01*
X132338942Y-80433474D01*
X132281026Y-80573295D01*
X132251500Y-80721729D01*
X132251500Y-80873071D01*
X132281026Y-81021505D01*
X132338942Y-81161326D01*
X132423023Y-81287162D01*
X132530038Y-81394177D01*
X132655874Y-81478258D01*
X132795695Y-81536174D01*
X132944129Y-81565700D01*
X133095471Y-81565700D01*
X133243905Y-81536174D01*
X133383726Y-81478258D01*
X133509562Y-81394177D01*
X133613039Y-81290700D01*
X133935376Y-81290700D01*
X133959600Y-81293086D01*
X133983824Y-81290700D01*
X133983827Y-81290700D01*
X134056304Y-81283562D01*
X134149291Y-81255354D01*
X134234988Y-81209548D01*
X134310103Y-81147903D01*
X134325553Y-81129077D01*
X134570677Y-80883953D01*
X134589503Y-80868503D01*
X134633117Y-80815359D01*
X134651148Y-80793389D01*
X134667103Y-80763538D01*
X134696954Y-80707691D01*
X134725162Y-80614704D01*
X134732300Y-80542227D01*
X134732300Y-80542218D01*
X134734685Y-80518001D01*
X134732300Y-80493784D01*
X134732300Y-79456239D01*
X134812501Y-79536440D01*
X134812501Y-84281960D01*
X134748223Y-84346238D01*
X134664142Y-84472074D01*
X134606226Y-84611895D01*
X134576700Y-84760329D01*
X134576700Y-84911671D01*
X134606226Y-85060105D01*
X134664142Y-85199926D01*
X134748223Y-85325762D01*
X134812501Y-85390040D01*
X134812500Y-93498576D01*
X134810114Y-93522800D01*
X134812500Y-93547024D01*
X134812500Y-93547026D01*
X134819638Y-93619503D01*
X134847846Y-93712490D01*
X134893652Y-93798188D01*
X134955297Y-93873303D01*
X134974123Y-93888753D01*
X135213892Y-94128523D01*
X135056135Y-94233933D01*
X134873933Y-94416135D01*
X134730777Y-94630382D01*
X134632170Y-94868441D01*
X134620000Y-94929623D01*
X134607830Y-94868441D01*
X134509223Y-94630382D01*
X134366067Y-94416135D01*
X134183865Y-94233933D01*
X134099300Y-94177428D01*
X134099300Y-85761795D01*
X134102924Y-85724999D01*
X134099300Y-85688203D01*
X134099300Y-85688194D01*
X134088458Y-85578112D01*
X134045612Y-85436868D01*
X133976034Y-85306697D01*
X133882398Y-85192602D01*
X133853811Y-85169141D01*
X131834863Y-83150194D01*
X131811398Y-83121602D01*
X131697303Y-83027966D01*
X131567132Y-82958388D01*
X131425888Y-82915542D01*
X131315806Y-82904700D01*
X131315795Y-82904700D01*
X131279000Y-82901076D01*
X131242205Y-82904700D01*
X130385188Y-82904700D01*
X130289671Y-82885700D01*
X130138329Y-82885700D01*
X130042812Y-82904700D01*
X129781300Y-82904700D01*
X129781300Y-82721188D01*
X129800300Y-82625671D01*
X129800300Y-82474329D01*
X129770774Y-82325895D01*
X129712858Y-82186074D01*
X129628777Y-82060238D01*
X129521762Y-81953223D01*
X129395926Y-81869142D01*
X129256105Y-81811226D01*
X129107671Y-81781700D01*
X128956329Y-81781700D01*
X128807895Y-81811226D01*
X128668074Y-81869142D01*
X128542238Y-81953223D01*
X128435223Y-82060238D01*
X128351142Y-82186074D01*
X128293226Y-82325895D01*
X128263700Y-82474329D01*
X128263700Y-82625671D01*
X128282700Y-82721189D01*
X128282701Y-83471007D01*
X128263700Y-83566529D01*
X128263700Y-83717871D01*
X128293226Y-83866305D01*
X128351142Y-84006126D01*
X128435223Y-84131962D01*
X128542238Y-84238977D01*
X128668074Y-84323058D01*
X128807895Y-84380974D01*
X128956329Y-84410500D01*
X129107671Y-84410500D01*
X129143867Y-84403300D01*
X130042812Y-84403300D01*
X130138329Y-84422300D01*
X130289671Y-84422300D01*
X130385188Y-84403300D01*
X130968631Y-84403300D01*
X132600701Y-86035371D01*
X132600700Y-94177428D01*
X132516135Y-94233933D01*
X132333933Y-94416135D01*
X132190777Y-94630382D01*
X132092170Y-94868441D01*
X132080491Y-94927153D01*
X132008999Y-94713334D01*
X131922349Y-94551224D01*
X131734217Y-94450941D01*
X130935158Y-95250000D01*
X130949300Y-95264142D01*
X130824142Y-95389300D01*
X130810000Y-95375158D01*
X130795858Y-95389300D01*
X130670700Y-95264142D01*
X130684842Y-95250000D01*
X129885783Y-94450941D01*
X129697651Y-94551224D01*
X129582700Y-94781659D01*
X129540981Y-94934557D01*
X129527830Y-94868441D01*
X129429223Y-94630382D01*
X129286067Y-94416135D01*
X129195715Y-94325783D01*
X130010941Y-94325783D01*
X130810000Y-95124842D01*
X131609059Y-94325783D01*
X131508776Y-94137651D01*
X131278341Y-94022700D01*
X131029907Y-93954914D01*
X130773023Y-93936897D01*
X130517559Y-93969342D01*
X130273334Y-94051001D01*
X130111224Y-94137651D01*
X130010941Y-94325783D01*
X129195715Y-94325783D01*
X129103865Y-94233933D01*
X128889618Y-94090777D01*
X128651559Y-93992170D01*
X128398837Y-93941900D01*
X128141163Y-93941900D01*
X127888441Y-93992170D01*
X127650382Y-94090777D01*
X127436135Y-94233933D01*
X127431800Y-94238268D01*
X127431800Y-80493310D01*
X127799408Y-80860918D01*
X128246623Y-81159738D01*
X128743542Y-81365569D01*
X129271069Y-81470500D01*
X129808931Y-81470500D01*
X130336458Y-81365569D01*
X130833377Y-81159738D01*
X131280592Y-80860918D01*
X131660918Y-80480592D01*
X131959738Y-80033377D01*
X132165569Y-79536458D01*
X132270500Y-79008931D01*
X132270500Y-78471069D01*
X132165569Y-77943542D01*
X131959738Y-77446623D01*
X131660918Y-76999408D01*
X131293310Y-76631800D01*
X137946690Y-76631800D01*
X137579082Y-76999408D01*
%TA.AperFunction,Conductor*%
D16*
G36*
X137579082Y-76999408D02*
G01*
X137280262Y-77446623D01*
X137074431Y-77943542D01*
X136969500Y-78471069D01*
X136969500Y-79008931D01*
X137074431Y-79536458D01*
X137280262Y-80033377D01*
X137579082Y-80480592D01*
X137959408Y-80860918D01*
X138406623Y-81159738D01*
X138903542Y-81365569D01*
X139431069Y-81470500D01*
X139968931Y-81470500D01*
X140496458Y-81365569D01*
X140993377Y-81159738D01*
X141440592Y-80860918D01*
X141808201Y-80493309D01*
X141808200Y-88351941D01*
X141738300Y-88282040D01*
X141738300Y-88138529D01*
X141708774Y-87990095D01*
X141650858Y-87850274D01*
X141566777Y-87724438D01*
X141459762Y-87617423D01*
X141333926Y-87533342D01*
X141194105Y-87475426D01*
X141045671Y-87445900D01*
X140894329Y-87445900D01*
X140745895Y-87475426D01*
X140606074Y-87533342D01*
X140480238Y-87617423D01*
X140373223Y-87724438D01*
X140289142Y-87850274D01*
X140231226Y-87990095D01*
X140201700Y-88138529D01*
X140201700Y-88289871D01*
X140231226Y-88438305D01*
X140289142Y-88578126D01*
X140373223Y-88703962D01*
X140480238Y-88810977D01*
X140606074Y-88895058D01*
X140745895Y-88952974D01*
X140894329Y-88982500D01*
X141037840Y-88982500D01*
X141262100Y-89206760D01*
X141262101Y-93974376D01*
X141098837Y-93941900D01*
X140841163Y-93941900D01*
X140588441Y-93992170D01*
X140350382Y-94090777D01*
X140136135Y-94233933D01*
X139953933Y-94416135D01*
X139810777Y-94630382D01*
X139712170Y-94868441D01*
X139700000Y-94929623D01*
X139687830Y-94868441D01*
X139589223Y-94630382D01*
X139446067Y-94416135D01*
X139263865Y-94233933D01*
X139049618Y-94090777D01*
X138811559Y-93992170D01*
X138558837Y-93941900D01*
X138301163Y-93941900D01*
X138048441Y-93992170D01*
X137922123Y-94044492D01*
X136586500Y-92708870D01*
X136586500Y-87715239D01*
X136689977Y-87611762D01*
X136774058Y-87485926D01*
X136831974Y-87346105D01*
X136861500Y-87197671D01*
X136861500Y-87046329D01*
X136831974Y-86897895D01*
X136774058Y-86758074D01*
X136689977Y-86632238D01*
X136586500Y-86528761D01*
X136586500Y-85903329D01*
X139058700Y-85903329D01*
X139058700Y-86054671D01*
X139088226Y-86203105D01*
X139146142Y-86342926D01*
X139230223Y-86468762D01*
X139337238Y-86575777D01*
X139463074Y-86659858D01*
X139602895Y-86717774D01*
X139751329Y-86747300D01*
X139902671Y-86747300D01*
X140051105Y-86717774D01*
X140190926Y-86659858D01*
X140316762Y-86575777D01*
X140423777Y-86468762D01*
X140507858Y-86342926D01*
X140565774Y-86203105D01*
X140595300Y-86054671D01*
X140595300Y-85903329D01*
X140576300Y-85807812D01*
X140576300Y-84257369D01*
X140686406Y-84147263D01*
X140714998Y-84123798D01*
X140808634Y-84009703D01*
X140878212Y-83879532D01*
X140921058Y-83738288D01*
X140931900Y-83628206D01*
X140931900Y-83628197D01*
X140935524Y-83591401D01*
X140931900Y-83554605D01*
X140931900Y-82721188D01*
X140950900Y-82625671D01*
X140950900Y-82474329D01*
X140921374Y-82325895D01*
X140863458Y-82186074D01*
X140779377Y-82060238D01*
X140672362Y-81953223D01*
X140546526Y-81869142D01*
X140406705Y-81811226D01*
X140258271Y-81781700D01*
X140106929Y-81781700D01*
X139958495Y-81811226D01*
X139818674Y-81869142D01*
X139692838Y-81953223D01*
X139585823Y-82060238D01*
X139501742Y-82186074D01*
X139443826Y-82325895D01*
X139414300Y-82474329D01*
X139414300Y-82625671D01*
X139433300Y-82721189D01*
X139433301Y-83281030D01*
X139323189Y-83391142D01*
X139294603Y-83414602D01*
X139271143Y-83443188D01*
X139271140Y-83443191D01*
X139200966Y-83528697D01*
X139131388Y-83658869D01*
X139109911Y-83729671D01*
X139088543Y-83800112D01*
X139080721Y-83879532D01*
X139074076Y-83947000D01*
X139077701Y-83983805D01*
X139077700Y-85807811D01*
X139058700Y-85903329D01*
X136586500Y-85903329D01*
X136586500Y-78459416D01*
X136588885Y-78435199D01*
X136586500Y-78410982D01*
X136586500Y-78410973D01*
X136579362Y-78338496D01*
X136551154Y-78245509D01*
X136513413Y-78174900D01*
X136505348Y-78159811D01*
X136459146Y-78103515D01*
X136443703Y-78084697D01*
X136424882Y-78069251D01*
X136052753Y-77697123D01*
X136037303Y-77678297D01*
X135962188Y-77616652D01*
X135876491Y-77570846D01*
X135783504Y-77542638D01*
X135711027Y-77535500D01*
X135711024Y-77535500D01*
X135686800Y-77533114D01*
X135662576Y-77535500D01*
X134771216Y-77535500D01*
X134746999Y-77533115D01*
X134722782Y-77535500D01*
X134722773Y-77535500D01*
X134650296Y-77542638D01*
X134557309Y-77570846D01*
X134505267Y-77598663D01*
X134471611Y-77616652D01*
X134415314Y-77662854D01*
X134396497Y-77678297D01*
X134381055Y-77697113D01*
X133907318Y-78170852D01*
X133888498Y-78186297D01*
X133873054Y-78205116D01*
X133826852Y-78261412D01*
X133781046Y-78347110D01*
X133752839Y-78440097D01*
X133743314Y-78536800D01*
X133745701Y-78561034D01*
X133745700Y-80304100D01*
X133613039Y-80304100D01*
X133509562Y-80200623D01*
X133383726Y-80116542D01*
X133243905Y-80058626D01*
X133095471Y-80029100D01*
X132944129Y-80029100D01*
X132795695Y-80058626D01*
X132655874Y-80116542D01*
X132530038Y-80200623D01*
X132423023Y-80307638D01*
X132338942Y-80433474D01*
X132281026Y-80573295D01*
X132251500Y-80721729D01*
X132251500Y-80873071D01*
X132281026Y-81021505D01*
X132338942Y-81161326D01*
X132423023Y-81287162D01*
X132530038Y-81394177D01*
X132655874Y-81478258D01*
X132795695Y-81536174D01*
X132944129Y-81565700D01*
X133095471Y-81565700D01*
X133243905Y-81536174D01*
X133383726Y-81478258D01*
X133509562Y-81394177D01*
X133613039Y-81290700D01*
X133935376Y-81290700D01*
X133959600Y-81293086D01*
X133983824Y-81290700D01*
X133983827Y-81290700D01*
X134056304Y-81283562D01*
X134149291Y-81255354D01*
X134234988Y-81209548D01*
X134310103Y-81147903D01*
X134325553Y-81129077D01*
X134570677Y-80883953D01*
X134589503Y-80868503D01*
X134633117Y-80815359D01*
X134651148Y-80793389D01*
X134667103Y-80763538D01*
X134696954Y-80707691D01*
X134725162Y-80614704D01*
X134732300Y-80542227D01*
X134732300Y-80542218D01*
X134734685Y-80518001D01*
X134732300Y-80493784D01*
X134732300Y-79456239D01*
X134812501Y-79536440D01*
X134812501Y-84281960D01*
X134748223Y-84346238D01*
X134664142Y-84472074D01*
X134606226Y-84611895D01*
X134576700Y-84760329D01*
X134576700Y-84911671D01*
X134606226Y-85060105D01*
X134664142Y-85199926D01*
X134748223Y-85325762D01*
X134812501Y-85390040D01*
X134812500Y-93498576D01*
X134810114Y-93522800D01*
X134812500Y-93547024D01*
X134812500Y-93547026D01*
X134819638Y-93619503D01*
X134847846Y-93712490D01*
X134893652Y-93798188D01*
X134955297Y-93873303D01*
X134974123Y-93888753D01*
X135213892Y-94128523D01*
X135056135Y-94233933D01*
X134873933Y-94416135D01*
X134730777Y-94630382D01*
X134632170Y-94868441D01*
X134620000Y-94929623D01*
X134607830Y-94868441D01*
X134509223Y-94630382D01*
X134366067Y-94416135D01*
X134183865Y-94233933D01*
X134099300Y-94177428D01*
X134099300Y-85761795D01*
X134102924Y-85724999D01*
X134099300Y-85688203D01*
X134099300Y-85688194D01*
X134088458Y-85578112D01*
X134045612Y-85436868D01*
X133976034Y-85306697D01*
X133882398Y-85192602D01*
X133853811Y-85169141D01*
X131834863Y-83150194D01*
X131811398Y-83121602D01*
X131697303Y-83027966D01*
X131567132Y-82958388D01*
X131425888Y-82915542D01*
X131315806Y-82904700D01*
X131315795Y-82904700D01*
X131279000Y-82901076D01*
X131242205Y-82904700D01*
X130385188Y-82904700D01*
X130289671Y-82885700D01*
X130138329Y-82885700D01*
X130042812Y-82904700D01*
X129781300Y-82904700D01*
X129781300Y-82721188D01*
X129800300Y-82625671D01*
X129800300Y-82474329D01*
X129770774Y-82325895D01*
X129712858Y-82186074D01*
X129628777Y-82060238D01*
X129521762Y-81953223D01*
X129395926Y-81869142D01*
X129256105Y-81811226D01*
X129107671Y-81781700D01*
X128956329Y-81781700D01*
X128807895Y-81811226D01*
X128668074Y-81869142D01*
X128542238Y-81953223D01*
X128435223Y-82060238D01*
X128351142Y-82186074D01*
X128293226Y-82325895D01*
X128263700Y-82474329D01*
X128263700Y-82625671D01*
X128282700Y-82721189D01*
X128282701Y-83471007D01*
X128263700Y-83566529D01*
X128263700Y-83717871D01*
X128293226Y-83866305D01*
X128351142Y-84006126D01*
X128435223Y-84131962D01*
X128542238Y-84238977D01*
X128668074Y-84323058D01*
X128807895Y-84380974D01*
X128956329Y-84410500D01*
X129107671Y-84410500D01*
X129143867Y-84403300D01*
X130042812Y-84403300D01*
X130138329Y-84422300D01*
X130289671Y-84422300D01*
X130385188Y-84403300D01*
X130968631Y-84403300D01*
X132600701Y-86035371D01*
X132600700Y-94177428D01*
X132516135Y-94233933D01*
X132333933Y-94416135D01*
X132190777Y-94630382D01*
X132092170Y-94868441D01*
X132080491Y-94927153D01*
X132008999Y-94713334D01*
X131922349Y-94551224D01*
X131734217Y-94450941D01*
X130935158Y-95250000D01*
X130949300Y-95264142D01*
X130824142Y-95389300D01*
X130810000Y-95375158D01*
X130795858Y-95389300D01*
X130670700Y-95264142D01*
X130684842Y-95250000D01*
X129885783Y-94450941D01*
X129697651Y-94551224D01*
X129582700Y-94781659D01*
X129540981Y-94934557D01*
X129527830Y-94868441D01*
X129429223Y-94630382D01*
X129286067Y-94416135D01*
X129195715Y-94325783D01*
X130010941Y-94325783D01*
X130810000Y-95124842D01*
X131609059Y-94325783D01*
X131508776Y-94137651D01*
X131278341Y-94022700D01*
X131029907Y-93954914D01*
X130773023Y-93936897D01*
X130517559Y-93969342D01*
X130273334Y-94051001D01*
X130111224Y-94137651D01*
X130010941Y-94325783D01*
X129195715Y-94325783D01*
X129103865Y-94233933D01*
X128889618Y-94090777D01*
X128651559Y-93992170D01*
X128398837Y-93941900D01*
X128141163Y-93941900D01*
X127888441Y-93992170D01*
X127650382Y-94090777D01*
X127436135Y-94233933D01*
X127431800Y-94238268D01*
X127431800Y-80493310D01*
X127799408Y-80860918D01*
X128246623Y-81159738D01*
X128743542Y-81365569D01*
X129271069Y-81470500D01*
X129808931Y-81470500D01*
X130336458Y-81365569D01*
X130833377Y-81159738D01*
X131280592Y-80860918D01*
X131660918Y-80480592D01*
X131959738Y-80033377D01*
X132165569Y-79536458D01*
X132270500Y-79008931D01*
X132270500Y-78471069D01*
X132165569Y-77943542D01*
X131959738Y-77446623D01*
X131660918Y-76999408D01*
X131293310Y-76631800D01*
X137946690Y-76631800D01*
X137579082Y-76999408D01*
G37*
%TD.AperFunction*%
%TD*%
M02*
