M48
; DRILL file {KiCad 5.1.8-db9833491~88~ubuntu20.04.1} date Sat Dec 19 12:54:12 2020
; FORMAT={-:-/ absolute / inch / decimal}
; #@! TF.CreationDate,2020-12-19T12:54:12+05:30
; #@! TF.GenerationSoftware,Kicad,Pcbnew,5.1.8-db9833491~88~ubuntu20.04.1
FMAT,2
INCH
T1C0.0157
T2C0.0400
T3C0.1300
%
G90
G05
T1
X5.08Y-3.25
X5.08Y-3.293
X5.081Y-3.43
X5.1Y-3.7
X5.1265Y-3.2935
X5.2Y-3.7
X5.232Y-3.25
X5.237Y-3.181
X5.3Y-3.7
X5.327Y-3.108
X5.3285Y-3.34
X5.358Y-3.43
X5.46Y-3.502
X5.46Y-3.657
X5.5Y-3.7
X5.505Y-3.385
X5.519Y-3.25
X5.536Y-3.58
X5.55Y-3.473
T2
X5.05Y-3.75
X5.15Y-3.75
X5.25Y-3.75
X5.35Y-3.75
X5.45Y-3.75
X5.55Y-3.75
T3
X5.1Y-3.1
X5.5Y-3.1
T0
M30
