%TF.GenerationSoftware,KiCad,Pcbnew,5.1.8-db9833491~88~ubuntu20.04.1*%
%TF.CreationDate,2020-12-19T13:22:12+05:30*%
%TF.ProjectId,SparkFun_APDS-9960_RGB_and_Gesture_Sensor,53706172-6b46-4756-9e5f-415044532d39,rev?*%
%TF.SameCoordinates,Original*%
%TF.FileFunction,Legend,Top*%
%TF.FilePolarity,Positive*%
%FSLAX46Y46*%
G04 Gerber Fmt 4.6, Leading zero omitted, Abs format (unit mm)*
G04 Created by KiCad (PCBNEW 5.1.8-db9833491~88~ubuntu20.04.1) date 2020-12-19 13:22:12*
%MOMM*%
%LPD*%
G01*
G04 APERTURE LIST*
%ADD10C,0.101600*%
%ADD11C,0.121920*%
%ADD12C,0.152400*%
%ADD13C,0.200000*%
%ADD14C,0.100000*%
%ADD15C,0.127000*%
%ADD16C,0.558800*%
%ADD17C,0.203200*%
%ADD18R,3.048000X3.048000*%
%ADD19C,2.082800*%
%ADD20C,3.302000*%
G04 APERTURE END LIST*
D10*
X130422952Y-93345000D02*
X130374571Y-93320809D01*
X130302000Y-93320809D01*
X130229428Y-93345000D01*
X130181047Y-93393380D01*
X130156857Y-93441761D01*
X130132666Y-93538523D01*
X130132666Y-93611095D01*
X130156857Y-93707857D01*
X130181047Y-93756238D01*
X130229428Y-93804619D01*
X130302000Y-93828809D01*
X130350380Y-93828809D01*
X130422952Y-93804619D01*
X130447142Y-93780428D01*
X130447142Y-93611095D01*
X130350380Y-93611095D01*
X130664857Y-93828809D02*
X130664857Y-93320809D01*
X130955142Y-93828809D01*
X130955142Y-93320809D01*
X131197047Y-93828809D02*
X131197047Y-93320809D01*
X131318000Y-93320809D01*
X131390571Y-93345000D01*
X131438952Y-93393380D01*
X131463142Y-93441761D01*
X131487333Y-93538523D01*
X131487333Y-93611095D01*
X131463142Y-93707857D01*
X131438952Y-93756238D01*
X131390571Y-93804619D01*
X131318000Y-93828809D01*
X131197047Y-93828809D01*
X132672666Y-93320809D02*
X132842000Y-93828809D01*
X133011333Y-93320809D01*
X133470952Y-93780428D02*
X133446761Y-93804619D01*
X133374190Y-93828809D01*
X133325809Y-93828809D01*
X133253238Y-93804619D01*
X133204857Y-93756238D01*
X133180666Y-93707857D01*
X133156476Y-93611095D01*
X133156476Y-93538523D01*
X133180666Y-93441761D01*
X133204857Y-93393380D01*
X133253238Y-93345000D01*
X133325809Y-93320809D01*
X133374190Y-93320809D01*
X133446761Y-93345000D01*
X133470952Y-93369190D01*
X133978952Y-93780428D02*
X133954761Y-93804619D01*
X133882190Y-93828809D01*
X133833809Y-93828809D01*
X133761238Y-93804619D01*
X133712857Y-93756238D01*
X133688666Y-93707857D01*
X133664476Y-93611095D01*
X133664476Y-93538523D01*
X133688666Y-93441761D01*
X133712857Y-93393380D01*
X133761238Y-93345000D01*
X133833809Y-93320809D01*
X133882190Y-93320809D01*
X133954761Y-93345000D01*
X133978952Y-93369190D01*
X135273142Y-93804619D02*
X135345714Y-93828809D01*
X135466666Y-93828809D01*
X135515047Y-93804619D01*
X135539238Y-93780428D01*
X135563428Y-93732047D01*
X135563428Y-93683666D01*
X135539238Y-93635285D01*
X135515047Y-93611095D01*
X135466666Y-93586904D01*
X135369904Y-93562714D01*
X135321523Y-93538523D01*
X135297333Y-93514333D01*
X135273142Y-93465952D01*
X135273142Y-93417571D01*
X135297333Y-93369190D01*
X135321523Y-93345000D01*
X135369904Y-93320809D01*
X135490857Y-93320809D01*
X135563428Y-93345000D01*
X135781142Y-93828809D02*
X135781142Y-93320809D01*
X135902095Y-93320809D01*
X135974666Y-93345000D01*
X136023047Y-93393380D01*
X136047238Y-93441761D01*
X136071428Y-93538523D01*
X136071428Y-93611095D01*
X136047238Y-93707857D01*
X136023047Y-93756238D01*
X135974666Y-93804619D01*
X135902095Y-93828809D01*
X135781142Y-93828809D01*
X136264952Y-93683666D02*
X136506857Y-93683666D01*
X136216571Y-93828809D02*
X136385904Y-93320809D01*
X136555238Y-93828809D01*
X137825238Y-93804619D02*
X137897809Y-93828809D01*
X138018761Y-93828809D01*
X138067142Y-93804619D01*
X138091333Y-93780428D01*
X138115523Y-93732047D01*
X138115523Y-93683666D01*
X138091333Y-93635285D01*
X138067142Y-93611095D01*
X138018761Y-93586904D01*
X137922000Y-93562714D01*
X137873619Y-93538523D01*
X137849428Y-93514333D01*
X137825238Y-93465952D01*
X137825238Y-93417571D01*
X137849428Y-93369190D01*
X137873619Y-93345000D01*
X137922000Y-93320809D01*
X138042952Y-93320809D01*
X138115523Y-93345000D01*
X138623523Y-93780428D02*
X138599333Y-93804619D01*
X138526761Y-93828809D01*
X138478380Y-93828809D01*
X138405809Y-93804619D01*
X138357428Y-93756238D01*
X138333238Y-93707857D01*
X138309047Y-93611095D01*
X138309047Y-93538523D01*
X138333238Y-93441761D01*
X138357428Y-93393380D01*
X138405809Y-93345000D01*
X138478380Y-93320809D01*
X138526761Y-93320809D01*
X138599333Y-93345000D01*
X138623523Y-93369190D01*
X139083142Y-93828809D02*
X138841238Y-93828809D01*
X138841238Y-93320809D01*
X140535780Y-93828809D02*
X140535780Y-93320809D01*
X140777685Y-93828809D02*
X140777685Y-93320809D01*
X141067971Y-93828809D01*
X141067971Y-93320809D01*
X141237304Y-93320809D02*
X141527590Y-93320809D01*
X141382447Y-93828809D02*
X141382447Y-93320809D01*
D11*
X142005110Y-84193646D02*
X141232950Y-84193646D01*
X141306489Y-83862720D02*
X141269720Y-83825950D01*
X141232950Y-83752411D01*
X141232950Y-83568564D01*
X141269720Y-83495025D01*
X141306489Y-83458255D01*
X141380028Y-83421486D01*
X141453567Y-83421486D01*
X141563876Y-83458255D01*
X142005110Y-83899489D01*
X142005110Y-83421486D01*
X141931571Y-82649326D02*
X141968340Y-82686095D01*
X142005110Y-82796404D01*
X142005110Y-82869943D01*
X141968340Y-82980251D01*
X141894801Y-83053790D01*
X141821262Y-83090560D01*
X141674184Y-83127329D01*
X141563876Y-83127329D01*
X141416798Y-83090560D01*
X141343259Y-83053790D01*
X141269720Y-82980251D01*
X141232950Y-82869943D01*
X141232950Y-82796404D01*
X141269720Y-82686095D01*
X141306489Y-82649326D01*
D10*
X127895047Y-93295409D02*
X128064380Y-93803409D01*
X128233714Y-93295409D01*
X128644952Y-93803409D02*
X128403047Y-93803409D01*
X128403047Y-93295409D01*
D11*
X142055910Y-82197689D02*
X141283750Y-82197689D01*
X141283750Y-81903533D01*
X141320520Y-81829994D01*
X141357289Y-81793225D01*
X141430828Y-81756455D01*
X141541137Y-81756455D01*
X141614676Y-81793225D01*
X141651445Y-81829994D01*
X141688215Y-81903533D01*
X141688215Y-82197689D01*
X141283750Y-81425529D02*
X141908832Y-81425529D01*
X141982371Y-81388760D01*
X142019140Y-81351990D01*
X142055910Y-81278451D01*
X142055910Y-81131373D01*
X142019140Y-81057834D01*
X141982371Y-81021065D01*
X141908832Y-80984295D01*
X141283750Y-80984295D01*
X128009710Y-84308550D02*
X127237550Y-84308550D01*
X127237550Y-84014394D01*
X127274320Y-83940855D01*
X127311089Y-83904086D01*
X127384628Y-83867316D01*
X127494937Y-83867316D01*
X127568476Y-83904086D01*
X127605245Y-83940855D01*
X127642015Y-84014394D01*
X127642015Y-84308550D01*
X127972940Y-83573160D02*
X128009710Y-83462851D01*
X128009710Y-83279004D01*
X127972940Y-83205465D01*
X127936171Y-83168695D01*
X127862632Y-83131926D01*
X127789093Y-83131926D01*
X127715554Y-83168695D01*
X127678784Y-83205465D01*
X127642015Y-83279004D01*
X127605245Y-83426082D01*
X127568476Y-83499621D01*
X127531706Y-83536390D01*
X127458167Y-83573160D01*
X127384628Y-83573160D01*
X127311089Y-83536390D01*
X127274320Y-83499621D01*
X127237550Y-83426082D01*
X127237550Y-83242234D01*
X127274320Y-83131926D01*
D12*
%TO.C,SJ2*%
X129016000Y-84798000D02*
X129016000Y-86398000D01*
X128766000Y-84498000D02*
X127266000Y-84498000D01*
X128766000Y-86698000D02*
X127266000Y-86698000D01*
X127016000Y-86398000D02*
X127016000Y-84798000D01*
X127266000Y-84498000D02*
G75*
G03*
X127016000Y-84798000I25000J-275000D01*
G01*
X127016000Y-86398000D02*
G75*
G03*
X127266000Y-86698000I275000J-25000D01*
G01*
X129016000Y-86397998D02*
G75*
G02*
X128766000Y-86698000I-274701J-25251D01*
G01*
X128766000Y-84498000D02*
G75*
G02*
X129016000Y-84798000I-25000J-275000D01*
G01*
D13*
%TO.C,U1*%
X133410000Y-79260000D02*
X135830000Y-79260000D01*
X136487100Y-79658000D02*
G75*
G03*
X136487100Y-79658000I-223100J0D01*
G01*
D14*
X134420000Y-82100000D02*
X134820000Y-82100000D01*
D13*
X133410000Y-83300000D02*
X135830000Y-83300000D01*
X133410000Y-79260000D02*
X133410000Y-83300000D01*
X135830000Y-79260000D02*
X135830000Y-83300000D01*
D14*
X134431890Y-79493169D02*
G75*
G02*
X134808112Y-79493169I188110J-516830D01*
G01*
X134808109Y-80526833D02*
G75*
G02*
X134431888Y-80526832I-188109J516830D01*
G01*
X134429823Y-82302161D02*
G75*
G02*
X134810178Y-82302162I190177J-407838D01*
G01*
X134810178Y-83117837D02*
G75*
G02*
X134429822Y-83117837I-190178J407838D01*
G01*
D15*
%TO.C,C1*%
X130937000Y-93091000D02*
X130937000Y-92773500D01*
X138303000Y-93091000D02*
X130937000Y-93091000D01*
X138303000Y-88773000D02*
X138303000Y-89090500D01*
X130937000Y-88773000D02*
X138303000Y-88773000D01*
X130937000Y-89090500D02*
X130937000Y-88773000D01*
X138303000Y-92773500D02*
X138303000Y-93091000D01*
X132397500Y-89090500D02*
X130937000Y-89090500D01*
X132397500Y-92773500D02*
X132397500Y-89090500D01*
X130937000Y-92773500D02*
X132397500Y-92773500D01*
X132524500Y-92900500D02*
X131000500Y-92900500D01*
X132524500Y-88963500D02*
X132524500Y-92900500D01*
X130937000Y-88963500D02*
X132524500Y-88963500D01*
X132651500Y-88836500D02*
X131000500Y-88836500D01*
X132651500Y-93027500D02*
X132651500Y-88836500D01*
X131000500Y-93027500D02*
X132651500Y-93027500D01*
X132778500Y-93027500D02*
X132778500Y-88836500D01*
X132905500Y-88836500D02*
X132905500Y-93027500D01*
X133032500Y-93027500D02*
X133032500Y-88836500D01*
X133159500Y-88836500D02*
X133159500Y-93027500D01*
X133286500Y-93027500D02*
X133286500Y-88836500D01*
X133413500Y-93027500D02*
X133413500Y-88836500D01*
X133540500Y-93027500D02*
X133540500Y-88836500D01*
D16*
%TO.C,C2*%
X131064000Y-87152500D02*
X131064000Y-87091500D01*
%TO.C,C3*%
X131064000Y-82519500D02*
X131064000Y-82580500D01*
D17*
%TO.C,JP1*%
X139700000Y-94615000D02*
X140335000Y-93980000D01*
X140335000Y-93980000D02*
X141605000Y-93980000D01*
X141605000Y-93980000D02*
X142240000Y-94615000D01*
X135255000Y-93980000D02*
X136525000Y-93980000D01*
X136525000Y-93980000D02*
X137160000Y-94615000D01*
X137160000Y-94615000D02*
X137795000Y-93980000D01*
X137795000Y-93980000D02*
X139065000Y-93980000D01*
X139065000Y-93980000D02*
X139700000Y-94615000D01*
X132080000Y-94615000D02*
X132715000Y-93980000D01*
X132715000Y-93980000D02*
X133985000Y-93980000D01*
X133985000Y-93980000D02*
X134620000Y-94615000D01*
X135255000Y-93980000D02*
X134620000Y-94615000D01*
X127635000Y-93980000D02*
X128905000Y-93980000D01*
X128905000Y-93980000D02*
X129540000Y-94615000D01*
X129540000Y-94615000D02*
X130175000Y-93980000D01*
X130175000Y-93980000D02*
X131445000Y-93980000D01*
X131445000Y-93980000D02*
X132080000Y-94615000D01*
X127000000Y-94615000D02*
X127000000Y-95885000D01*
X127635000Y-93980000D02*
X127000000Y-94615000D01*
X142240000Y-95885000D02*
X141605000Y-96520000D01*
X141605000Y-96520000D02*
X140335000Y-96520000D01*
X140335000Y-96520000D02*
X139700000Y-95885000D01*
X137160000Y-95885000D02*
X136525000Y-96520000D01*
X139700000Y-95885000D02*
X139065000Y-96520000D01*
X139065000Y-96520000D02*
X137795000Y-96520000D01*
X137795000Y-96520000D02*
X137160000Y-95885000D01*
X134620000Y-95885000D02*
X133985000Y-96520000D01*
X133985000Y-96520000D02*
X132715000Y-96520000D01*
X132715000Y-96520000D02*
X132080000Y-95885000D01*
X134620000Y-95885000D02*
X135255000Y-96520000D01*
X136525000Y-96520000D02*
X135255000Y-96520000D01*
X129540000Y-95885000D02*
X128905000Y-96520000D01*
X132080000Y-95885000D02*
X131445000Y-96520000D01*
X131445000Y-96520000D02*
X130175000Y-96520000D01*
X130175000Y-96520000D02*
X129540000Y-95885000D01*
X127000000Y-95885000D02*
X127635000Y-96520000D01*
X128905000Y-96520000D02*
X127635000Y-96520000D01*
X142240000Y-94615000D02*
X142240000Y-95885000D01*
D14*
%TO.C,R1*%
G36*
X137947400Y-82931000D02*
G01*
X138404600Y-82931000D01*
X138404600Y-82169000D01*
X137947400Y-82169000D01*
X137947400Y-82931000D01*
G37*
%TO.C,R4*%
G36*
X131292600Y-84455000D02*
G01*
X130835400Y-84455000D01*
X130835400Y-85217000D01*
X131292600Y-85217000D01*
X131292600Y-84455000D01*
G37*
D12*
%TO.C,SJ1*%
X142240000Y-84709000D02*
X142240000Y-87249000D01*
X141986000Y-84455000D02*
X140462000Y-84455000D01*
X141986000Y-87503000D02*
X140462000Y-87503000D01*
X140208000Y-87249000D02*
X140208000Y-84709000D01*
X141986000Y-84455000D02*
G75*
G02*
X142240000Y-84709000I0J-254000D01*
G01*
X142240000Y-87249000D02*
G75*
G02*
X141986000Y-87503000I-254000J0D01*
G01*
X140208000Y-87249000D02*
G75*
G03*
X140462000Y-87503000I254000J0D01*
G01*
X140462000Y-84455000D02*
G75*
G03*
X140208000Y-84709000I0J-254000D01*
G01*
D14*
%TO.C,U$1*%
G36*
X135215100Y-76856900D02*
G01*
X135215100Y-76876900D01*
X135215100Y-76906900D01*
X135215100Y-76936900D01*
X135205100Y-76966900D01*
X135195100Y-76986900D01*
X135165100Y-77016900D01*
X135135100Y-77026900D01*
X135105100Y-77026900D01*
X135065100Y-77016900D01*
X135025100Y-77006900D01*
X134985100Y-76986900D01*
X134955100Y-76966900D01*
X134915100Y-76936900D01*
X134885100Y-76906900D01*
X134855100Y-76876900D01*
X134835100Y-76846900D01*
X134815100Y-76816900D01*
X134805100Y-76776900D01*
X134805100Y-76746900D01*
X134805100Y-76716900D01*
X134815100Y-76686900D01*
X134825100Y-76666900D01*
X134845100Y-76636900D01*
X134885100Y-76606900D01*
X134925100Y-76586900D01*
X134975100Y-76576900D01*
X135015100Y-76566900D01*
X135045100Y-76566900D01*
X135075100Y-76566900D01*
X135095100Y-76576900D01*
X135105100Y-76576900D01*
X135095100Y-76566900D01*
X135055100Y-76536900D01*
X134995100Y-76506900D01*
X134915100Y-76466900D01*
X134825100Y-76446900D01*
X134725100Y-76446900D01*
X134615100Y-76466900D01*
X134505100Y-76526900D01*
X134415100Y-76596900D01*
X134365100Y-76676900D01*
X134335100Y-76766900D01*
X134335100Y-76846900D01*
X134355100Y-76936900D01*
X134405100Y-77026900D01*
X134475100Y-77106900D01*
X134555100Y-77196900D01*
X134625100Y-77266900D01*
X134655100Y-77346900D01*
X134655100Y-77416900D01*
X134635100Y-77476900D01*
X134595100Y-77526900D01*
X134535100Y-77566900D01*
X134455100Y-77586900D01*
X134375100Y-77586900D01*
X134325100Y-77576900D01*
X134275100Y-77556900D01*
X134245100Y-77526900D01*
X134215100Y-77496900D01*
X134195100Y-77466900D01*
X134185100Y-77436900D01*
X134185100Y-77396900D01*
X134195100Y-77366900D01*
X134215100Y-77346900D01*
X134235100Y-77326900D01*
X134255100Y-77306900D01*
X134285100Y-77296900D01*
X134305100Y-77286900D01*
X134325100Y-77276900D01*
X134335100Y-77266900D01*
X134315100Y-77256900D01*
X134295100Y-77246900D01*
X134255100Y-77246900D01*
X134215100Y-77246900D01*
X134175100Y-77246900D01*
X134115100Y-77256900D01*
X134065100Y-77266900D01*
X134015100Y-77286900D01*
X133975100Y-77316900D01*
X133925100Y-77356900D01*
X133895100Y-77406900D01*
X133865100Y-77456900D01*
X133845100Y-77526900D01*
X133835100Y-77606900D01*
X133835100Y-77706900D01*
X133835100Y-77866900D01*
X133835100Y-78026900D01*
X133835100Y-78186900D01*
X133835100Y-78346900D01*
X133835100Y-78506900D01*
X133835100Y-78666900D01*
X133835100Y-78826900D01*
X133835100Y-78986900D01*
X133835100Y-78976900D01*
X133855100Y-78956900D01*
X133885100Y-78926900D01*
X133915100Y-78876900D01*
X133965100Y-78826900D01*
X134015100Y-78766900D01*
X134075100Y-78706900D01*
X134135100Y-78646900D01*
X134195100Y-78576900D01*
X134255100Y-78506900D01*
X134305100Y-78456900D01*
X134355100Y-78406900D01*
X134405100Y-78376900D01*
X134455100Y-78346900D01*
X134515100Y-78336900D01*
X134585100Y-78336900D01*
X134705100Y-78336900D01*
X134825100Y-78316900D01*
X134935100Y-78286900D01*
X135035100Y-78246900D01*
X135135100Y-78186900D01*
X135215100Y-78116900D01*
X135295100Y-78036900D01*
X135365100Y-77946900D01*
X135465100Y-77766900D01*
X135515100Y-77576900D01*
X135525100Y-77406900D01*
X135495100Y-77246900D01*
X135445100Y-77096900D01*
X135375100Y-76986900D01*
X135295100Y-76896900D01*
X135215100Y-76846900D01*
X135215100Y-76856900D01*
G37*
%TD*%
%TO.C,SJ2*%
D10*
X127967619Y-88127598D02*
X127991809Y-88055026D01*
X127991809Y-87934074D01*
X127967619Y-87885693D01*
X127943428Y-87861502D01*
X127895047Y-87837312D01*
X127846666Y-87837312D01*
X127798285Y-87861502D01*
X127774095Y-87885693D01*
X127749904Y-87934074D01*
X127725714Y-88030836D01*
X127701523Y-88079217D01*
X127677333Y-88103407D01*
X127628952Y-88127598D01*
X127580571Y-88127598D01*
X127532190Y-88103407D01*
X127508000Y-88079217D01*
X127483809Y-88030836D01*
X127483809Y-87909883D01*
X127508000Y-87837312D01*
X127483809Y-87474455D02*
X127846666Y-87474455D01*
X127919238Y-87498645D01*
X127967619Y-87547026D01*
X127991809Y-87619598D01*
X127991809Y-87667979D01*
X127532190Y-87256740D02*
X127508000Y-87232550D01*
X127483809Y-87184169D01*
X127483809Y-87063217D01*
X127508000Y-87014836D01*
X127532190Y-86990645D01*
X127580571Y-86966455D01*
X127628952Y-86966455D01*
X127701523Y-86990645D01*
X127991809Y-87280931D01*
X127991809Y-86966455D01*
%TO.C,U1*%
X136145209Y-79162607D02*
X136556447Y-79162607D01*
X136604828Y-79138417D01*
X136629019Y-79114226D01*
X136653209Y-79065845D01*
X136653209Y-78969083D01*
X136629019Y-78920702D01*
X136604828Y-78896512D01*
X136556447Y-78872321D01*
X136145209Y-78872321D01*
X136653209Y-78364321D02*
X136653209Y-78654607D01*
X136653209Y-78509464D02*
X136145209Y-78509464D01*
X136217780Y-78557845D01*
X136266161Y-78606226D01*
X136290352Y-78654607D01*
%TO.C,C1*%
D15*
X128649185Y-89844033D02*
X128679423Y-89874271D01*
X128709661Y-89964985D01*
X128709661Y-90025461D01*
X128679423Y-90116176D01*
X128618947Y-90176652D01*
X128558471Y-90206890D01*
X128437519Y-90237128D01*
X128346804Y-90237128D01*
X128225852Y-90206890D01*
X128165376Y-90176652D01*
X128104900Y-90116176D01*
X128074661Y-90025461D01*
X128074661Y-89964985D01*
X128104900Y-89874271D01*
X128135138Y-89844033D01*
X128709661Y-89239271D02*
X128709661Y-89602128D01*
X128709661Y-89420700D02*
X128074661Y-89420700D01*
X128165376Y-89481176D01*
X128225852Y-89541652D01*
X128256090Y-89602128D01*
X134685314Y-92111285D02*
X134685314Y-92546714D01*
X134685314Y-92329000D02*
X133923314Y-92329000D01*
X134032171Y-92401571D01*
X134104742Y-92474142D01*
X134141028Y-92546714D01*
X133923314Y-91639571D02*
X133923314Y-91567000D01*
X133959600Y-91494428D01*
X133995885Y-91458142D01*
X134068457Y-91421857D01*
X134213600Y-91385571D01*
X134395028Y-91385571D01*
X134540171Y-91421857D01*
X134612742Y-91458142D01*
X134649028Y-91494428D01*
X134685314Y-91567000D01*
X134685314Y-91639571D01*
X134649028Y-91712142D01*
X134612742Y-91748428D01*
X134540171Y-91784714D01*
X134395028Y-91821000D01*
X134213600Y-91821000D01*
X134068457Y-91784714D01*
X133995885Y-91748428D01*
X133959600Y-91712142D01*
X133923314Y-91639571D01*
X133923314Y-90913857D02*
X133923314Y-90841285D01*
X133959600Y-90768714D01*
X133995885Y-90732428D01*
X134068457Y-90696142D01*
X134213600Y-90659857D01*
X134395028Y-90659857D01*
X134540171Y-90696142D01*
X134612742Y-90732428D01*
X134649028Y-90768714D01*
X134685314Y-90841285D01*
X134685314Y-90913857D01*
X134649028Y-90986428D01*
X134612742Y-91022714D01*
X134540171Y-91059000D01*
X134395028Y-91095285D01*
X134213600Y-91095285D01*
X134068457Y-91059000D01*
X133995885Y-91022714D01*
X133959600Y-90986428D01*
X133923314Y-90913857D01*
X134177314Y-90006714D02*
X134685314Y-90006714D01*
X134177314Y-90333285D02*
X134576457Y-90333285D01*
X134649028Y-90297000D01*
X134685314Y-90224428D01*
X134685314Y-90115571D01*
X134649028Y-90043000D01*
X134612742Y-90006714D01*
X134286171Y-89389857D02*
X134286171Y-89643857D01*
X134685314Y-89643857D02*
X133923314Y-89643857D01*
X133923314Y-89281000D01*
X128055914Y-90986428D02*
X128636485Y-90986428D01*
X128346200Y-91276714D02*
X128346200Y-90696142D01*
X137695214Y-93907428D02*
X138275785Y-93907428D01*
%TO.C,C2*%
D10*
X131270828Y-86114466D02*
X131295019Y-86138657D01*
X131319209Y-86211228D01*
X131319209Y-86259609D01*
X131295019Y-86332180D01*
X131246638Y-86380561D01*
X131198257Y-86404752D01*
X131101495Y-86428942D01*
X131028923Y-86428942D01*
X130932161Y-86404752D01*
X130883780Y-86380561D01*
X130835400Y-86332180D01*
X130811209Y-86259609D01*
X130811209Y-86211228D01*
X130835400Y-86138657D01*
X130859590Y-86114466D01*
X130859590Y-85920942D02*
X130835400Y-85896752D01*
X130811209Y-85848371D01*
X130811209Y-85727419D01*
X130835400Y-85679038D01*
X130859590Y-85654847D01*
X130907971Y-85630657D01*
X130956352Y-85630657D01*
X131028923Y-85654847D01*
X131319209Y-85945133D01*
X131319209Y-85630657D01*
%TO.C,C3*%
X131296228Y-81542466D02*
X131320419Y-81566657D01*
X131344609Y-81639228D01*
X131344609Y-81687609D01*
X131320419Y-81760180D01*
X131272038Y-81808561D01*
X131223657Y-81832752D01*
X131126895Y-81856942D01*
X131054323Y-81856942D01*
X130957561Y-81832752D01*
X130909180Y-81808561D01*
X130860800Y-81760180D01*
X130836609Y-81687609D01*
X130836609Y-81639228D01*
X130860800Y-81566657D01*
X130884990Y-81542466D01*
X130836609Y-81373133D02*
X130836609Y-81058657D01*
X131030133Y-81227990D01*
X131030133Y-81155419D01*
X131054323Y-81107038D01*
X131078514Y-81082847D01*
X131126895Y-81058657D01*
X131247847Y-81058657D01*
X131296228Y-81082847D01*
X131320419Y-81107038D01*
X131344609Y-81155419D01*
X131344609Y-81300561D01*
X131320419Y-81348942D01*
X131296228Y-81373133D01*
%TO.C,JP1*%
D15*
X127274561Y-92701230D02*
X127728133Y-92701230D01*
X127818847Y-92731469D01*
X127879323Y-92791945D01*
X127909561Y-92882659D01*
X127909561Y-92943135D01*
X127909561Y-92398850D02*
X127274561Y-92398850D01*
X127274561Y-92156945D01*
X127304800Y-92096469D01*
X127335038Y-92066230D01*
X127395514Y-92035992D01*
X127486228Y-92035992D01*
X127546704Y-92066230D01*
X127576942Y-92096469D01*
X127607180Y-92156945D01*
X127607180Y-92398850D01*
X127909561Y-91431230D02*
X127909561Y-91794088D01*
X127909561Y-91612659D02*
X127274561Y-91612659D01*
X127365276Y-91673135D01*
X127425752Y-91733611D01*
X127455990Y-91794088D01*
%TO.C,R1*%
D10*
X138456609Y-81491666D02*
X138214704Y-81661000D01*
X138456609Y-81781952D02*
X137948609Y-81781952D01*
X137948609Y-81588428D01*
X137972800Y-81540047D01*
X137996990Y-81515857D01*
X138045371Y-81491666D01*
X138117942Y-81491666D01*
X138166323Y-81515857D01*
X138190514Y-81540047D01*
X138214704Y-81588428D01*
X138214704Y-81781952D01*
X138456609Y-81007857D02*
X138456609Y-81298142D01*
X138456609Y-81153000D02*
X137948609Y-81153000D01*
X138021180Y-81201380D01*
X138069561Y-81249761D01*
X138093752Y-81298142D01*
%TO.C,R2*%
X138431209Y-83803066D02*
X138189304Y-83972400D01*
X138431209Y-84093352D02*
X137923209Y-84093352D01*
X137923209Y-83899828D01*
X137947400Y-83851447D01*
X137971590Y-83827257D01*
X138019971Y-83803066D01*
X138092542Y-83803066D01*
X138140923Y-83827257D01*
X138165114Y-83851447D01*
X138189304Y-83899828D01*
X138189304Y-84093352D01*
X137971590Y-83609542D02*
X137947400Y-83585352D01*
X137923209Y-83536971D01*
X137923209Y-83416019D01*
X137947400Y-83367638D01*
X137971590Y-83343447D01*
X138019971Y-83319257D01*
X138068352Y-83319257D01*
X138140923Y-83343447D01*
X138431209Y-83633733D01*
X138431209Y-83319257D01*
%TO.C,R3*%
X138456609Y-86089066D02*
X138214704Y-86258400D01*
X138456609Y-86379352D02*
X137948609Y-86379352D01*
X137948609Y-86185828D01*
X137972800Y-86137447D01*
X137996990Y-86113257D01*
X138045371Y-86089066D01*
X138117942Y-86089066D01*
X138166323Y-86113257D01*
X138190514Y-86137447D01*
X138214704Y-86185828D01*
X138214704Y-86379352D01*
X137948609Y-85919733D02*
X137948609Y-85605257D01*
X138142133Y-85774590D01*
X138142133Y-85702019D01*
X138166323Y-85653638D01*
X138190514Y-85629447D01*
X138238895Y-85605257D01*
X138359847Y-85605257D01*
X138408228Y-85629447D01*
X138432419Y-85653638D01*
X138456609Y-85702019D01*
X138456609Y-85847161D01*
X138432419Y-85895542D01*
X138408228Y-85919733D01*
%TO.C,R4*%
X131319209Y-83777666D02*
X131077304Y-83947000D01*
X131319209Y-84067952D02*
X130811209Y-84067952D01*
X130811209Y-83874428D01*
X130835400Y-83826047D01*
X130859590Y-83801857D01*
X130907971Y-83777666D01*
X130980542Y-83777666D01*
X131028923Y-83801857D01*
X131053114Y-83826047D01*
X131077304Y-83874428D01*
X131077304Y-84067952D01*
X130980542Y-83342238D02*
X131319209Y-83342238D01*
X130787019Y-83463190D02*
X131149876Y-83584142D01*
X131149876Y-83269666D01*
%TO.C,SJ1*%
X141912219Y-88838798D02*
X141936409Y-88766226D01*
X141936409Y-88645274D01*
X141912219Y-88596893D01*
X141888028Y-88572702D01*
X141839647Y-88548512D01*
X141791266Y-88548512D01*
X141742885Y-88572702D01*
X141718695Y-88596893D01*
X141694504Y-88645274D01*
X141670314Y-88742036D01*
X141646123Y-88790417D01*
X141621933Y-88814607D01*
X141573552Y-88838798D01*
X141525171Y-88838798D01*
X141476790Y-88814607D01*
X141452600Y-88790417D01*
X141428409Y-88742036D01*
X141428409Y-88621083D01*
X141452600Y-88548512D01*
X141428409Y-88185655D02*
X141791266Y-88185655D01*
X141863838Y-88209845D01*
X141912219Y-88258226D01*
X141936409Y-88330798D01*
X141936409Y-88379179D01*
X141936409Y-87677655D02*
X141936409Y-87967940D01*
X141936409Y-87822798D02*
X141428409Y-87822798D01*
X141500980Y-87871179D01*
X141549361Y-87919560D01*
X141573552Y-87967940D01*
%TD*%
%LPC*%
%TO.C,SJ2*%
G36*
G01*
X128651000Y-86429000D02*
X127381000Y-86429000D01*
G75*
G02*
X127279400Y-86327400I0J101600D01*
G01*
X127279400Y-85692400D01*
G75*
G02*
X127381000Y-85590800I101600J0D01*
G01*
X128651000Y-85590800D01*
G75*
G02*
X128752600Y-85692400I0J-101600D01*
G01*
X128752600Y-86327400D01*
G75*
G02*
X128651000Y-86429000I-101600J0D01*
G01*
G37*
G36*
G01*
X128651000Y-85605200D02*
X127381000Y-85605200D01*
G75*
G02*
X127279400Y-85503600I0J101600D01*
G01*
X127279400Y-84868600D01*
G75*
G02*
X127381000Y-84767000I101600J0D01*
G01*
X128651000Y-84767000D01*
G75*
G02*
X128752600Y-84868600I0J-101600D01*
G01*
X128752600Y-85503600D01*
G75*
G02*
X128651000Y-85605200I-101600J0D01*
G01*
G37*
%TD*%
%TO.C,U1*%
G36*
G01*
X134918400Y-80185000D02*
X134918400Y-79465000D01*
G75*
G02*
X135020000Y-79363400I101600J0D01*
G01*
X135620000Y-79363400D01*
G75*
G02*
X135721600Y-79465000I0J-101600D01*
G01*
X135721600Y-80185000D01*
G75*
G02*
X135620000Y-80286600I-101600J0D01*
G01*
X135020000Y-80286600D01*
G75*
G02*
X134918400Y-80185000I0J101600D01*
G01*
G37*
G36*
G01*
X134918400Y-81155000D02*
X134918400Y-80435000D01*
G75*
G02*
X135020000Y-80333400I101600J0D01*
G01*
X135620000Y-80333400D01*
G75*
G02*
X135721600Y-80435000I0J-101600D01*
G01*
X135721600Y-81155000D01*
G75*
G02*
X135620000Y-81256600I-101600J0D01*
G01*
X135020000Y-81256600D01*
G75*
G02*
X134918400Y-81155000I0J101600D01*
G01*
G37*
G36*
G01*
X134918400Y-82125000D02*
X134918400Y-81405000D01*
G75*
G02*
X135020000Y-81303400I101600J0D01*
G01*
X135620000Y-81303400D01*
G75*
G02*
X135721600Y-81405000I0J-101600D01*
G01*
X135721600Y-82125000D01*
G75*
G02*
X135620000Y-82226600I-101600J0D01*
G01*
X135020000Y-82226600D01*
G75*
G02*
X134918400Y-82125000I0J101600D01*
G01*
G37*
G36*
G01*
X134918400Y-83095000D02*
X134918400Y-82375000D01*
G75*
G02*
X135020000Y-82273400I101600J0D01*
G01*
X135620000Y-82273400D01*
G75*
G02*
X135721600Y-82375000I0J-101600D01*
G01*
X135721600Y-83095000D01*
G75*
G02*
X135620000Y-83196600I-101600J0D01*
G01*
X135020000Y-83196600D01*
G75*
G02*
X134918400Y-83095000I0J101600D01*
G01*
G37*
G36*
G01*
X133518400Y-83095000D02*
X133518400Y-82375000D01*
G75*
G02*
X133620000Y-82273400I101600J0D01*
G01*
X134220000Y-82273400D01*
G75*
G02*
X134321600Y-82375000I0J-101600D01*
G01*
X134321600Y-83095000D01*
G75*
G02*
X134220000Y-83196600I-101600J0D01*
G01*
X133620000Y-83196600D01*
G75*
G02*
X133518400Y-83095000I0J101600D01*
G01*
G37*
G36*
G01*
X133518400Y-82125000D02*
X133518400Y-81405000D01*
G75*
G02*
X133620000Y-81303400I101600J0D01*
G01*
X134220000Y-81303400D01*
G75*
G02*
X134321600Y-81405000I0J-101600D01*
G01*
X134321600Y-82125000D01*
G75*
G02*
X134220000Y-82226600I-101600J0D01*
G01*
X133620000Y-82226600D01*
G75*
G02*
X133518400Y-82125000I0J101600D01*
G01*
G37*
G36*
G01*
X133518400Y-81155000D02*
X133518400Y-80435000D01*
G75*
G02*
X133620000Y-80333400I101600J0D01*
G01*
X134220000Y-80333400D01*
G75*
G02*
X134321600Y-80435000I0J-101600D01*
G01*
X134321600Y-81155000D01*
G75*
G02*
X134220000Y-81256600I-101600J0D01*
G01*
X133620000Y-81256600D01*
G75*
G02*
X133518400Y-81155000I0J101600D01*
G01*
G37*
G36*
G01*
X133518400Y-80185000D02*
X133518400Y-79465000D01*
G75*
G02*
X133620000Y-79363400I101600J0D01*
G01*
X134220000Y-79363400D01*
G75*
G02*
X134321600Y-79465000I0J-101600D01*
G01*
X134321600Y-80185000D01*
G75*
G02*
X134220000Y-80286600I-101600J0D01*
G01*
X133620000Y-80286600D01*
G75*
G02*
X133518400Y-80185000I0J101600D01*
G01*
G37*
%TD*%
D18*
%TO.C,C1*%
X138684000Y-90932000D03*
X130556000Y-90932000D03*
%TD*%
%TO.C,C2*%
G36*
G01*
X130865600Y-86621999D02*
X130865600Y-87622001D01*
G75*
G02*
X130764001Y-87723600I-101599J0D01*
G01*
X129663999Y-87723600D01*
G75*
G02*
X129562400Y-87622001I0J101599D01*
G01*
X129562400Y-86621999D01*
G75*
G02*
X129663999Y-86520400I101599J0D01*
G01*
X130764001Y-86520400D01*
G75*
G02*
X130865600Y-86621999I0J-101599D01*
G01*
G37*
G36*
G01*
X132565600Y-86621999D02*
X132565600Y-87622001D01*
G75*
G02*
X132464001Y-87723600I-101599J0D01*
G01*
X131363999Y-87723600D01*
G75*
G02*
X131262400Y-87622001I0J101599D01*
G01*
X131262400Y-86621999D01*
G75*
G02*
X131363999Y-86520400I101599J0D01*
G01*
X132464001Y-86520400D01*
G75*
G02*
X132565600Y-86621999I0J-101599D01*
G01*
G37*
%TD*%
%TO.C,C3*%
G36*
G01*
X131262400Y-83050001D02*
X131262400Y-82049999D01*
G75*
G02*
X131363999Y-81948400I101599J0D01*
G01*
X132464001Y-81948400D01*
G75*
G02*
X132565600Y-82049999I0J-101599D01*
G01*
X132565600Y-83050001D01*
G75*
G02*
X132464001Y-83151600I-101599J0D01*
G01*
X131363999Y-83151600D01*
G75*
G02*
X131262400Y-83050001I0J101599D01*
G01*
G37*
G36*
G01*
X129562400Y-83050001D02*
X129562400Y-82049999D01*
G75*
G02*
X129663999Y-81948400I101599J0D01*
G01*
X130764001Y-81948400D01*
G75*
G02*
X130865600Y-82049999I0J-101599D01*
G01*
X130865600Y-83050001D01*
G75*
G02*
X130764001Y-83151600I-101599J0D01*
G01*
X129663999Y-83151600D01*
G75*
G02*
X129562400Y-83050001I0J101599D01*
G01*
G37*
%TD*%
%TO.C,FID1*%
G36*
G01*
X140622400Y-92202000D02*
X140622400Y-92202000D01*
G75*
G02*
X141224000Y-91600400I601600J0D01*
G01*
X141224000Y-91600400D01*
G75*
G02*
X141825600Y-92202000I0J-601600D01*
G01*
X141825600Y-92202000D01*
G75*
G02*
X141224000Y-92803600I-601600J0D01*
G01*
X141224000Y-92803600D01*
G75*
G02*
X140622400Y-92202000I0J601600D01*
G01*
G37*
%TD*%
%TO.C,FID2*%
G36*
G01*
X132240400Y-77216000D02*
X132240400Y-77216000D01*
G75*
G02*
X132842000Y-76614400I601600J0D01*
G01*
X132842000Y-76614400D01*
G75*
G02*
X133443600Y-77216000I0J-601600D01*
G01*
X133443600Y-77216000D01*
G75*
G02*
X132842000Y-77817600I-601600J0D01*
G01*
X132842000Y-77817600D01*
G75*
G02*
X132240400Y-77216000I0J601600D01*
G01*
G37*
%TD*%
D19*
%TO.C,JP1*%
X140970000Y-95250000D03*
X138430000Y-95250000D03*
X135890000Y-95250000D03*
X133350000Y-95250000D03*
X130810000Y-95250000D03*
X128270000Y-95250000D03*
%TD*%
%TO.C,R1*%
G36*
G01*
X138374400Y-83050001D02*
X138374400Y-82049999D01*
G75*
G02*
X138475999Y-81948400I101599J0D01*
G01*
X139576001Y-81948400D01*
G75*
G02*
X139677600Y-82049999I0J-101599D01*
G01*
X139677600Y-83050001D01*
G75*
G02*
X139576001Y-83151600I-101599J0D01*
G01*
X138475999Y-83151600D01*
G75*
G02*
X138374400Y-83050001I0J101599D01*
G01*
G37*
G36*
G01*
X136674400Y-83050001D02*
X136674400Y-82049999D01*
G75*
G02*
X136775999Y-81948400I101599J0D01*
G01*
X137876001Y-81948400D01*
G75*
G02*
X137977600Y-82049999I0J-101599D01*
G01*
X137977600Y-83050001D01*
G75*
G02*
X137876001Y-83151600I-101599J0D01*
G01*
X136775999Y-83151600D01*
G75*
G02*
X136674400Y-83050001I0J101599D01*
G01*
G37*
%TD*%
%TO.C,R2*%
G36*
G01*
X138374400Y-85336001D02*
X138374400Y-84335999D01*
G75*
G02*
X138475999Y-84234400I101599J0D01*
G01*
X139576001Y-84234400D01*
G75*
G02*
X139677600Y-84335999I0J-101599D01*
G01*
X139677600Y-85336001D01*
G75*
G02*
X139576001Y-85437600I-101599J0D01*
G01*
X138475999Y-85437600D01*
G75*
G02*
X138374400Y-85336001I0J101599D01*
G01*
G37*
G36*
G01*
X136674400Y-85336001D02*
X136674400Y-84335999D01*
G75*
G02*
X136775999Y-84234400I101599J0D01*
G01*
X137876001Y-84234400D01*
G75*
G02*
X137977600Y-84335999I0J-101599D01*
G01*
X137977600Y-85336001D01*
G75*
G02*
X137876001Y-85437600I-101599J0D01*
G01*
X136775999Y-85437600D01*
G75*
G02*
X136674400Y-85336001I0J101599D01*
G01*
G37*
%TD*%
%TO.C,R3*%
G36*
G01*
X138374400Y-87622001D02*
X138374400Y-86621999D01*
G75*
G02*
X138475999Y-86520400I101599J0D01*
G01*
X139576001Y-86520400D01*
G75*
G02*
X139677600Y-86621999I0J-101599D01*
G01*
X139677600Y-87622001D01*
G75*
G02*
X139576001Y-87723600I-101599J0D01*
G01*
X138475999Y-87723600D01*
G75*
G02*
X138374400Y-87622001I0J101599D01*
G01*
G37*
G36*
G01*
X136674400Y-87622001D02*
X136674400Y-86621999D01*
G75*
G02*
X136775999Y-86520400I101599J0D01*
G01*
X137876001Y-86520400D01*
G75*
G02*
X137977600Y-86621999I0J-101599D01*
G01*
X137977600Y-87622001D01*
G75*
G02*
X137876001Y-87723600I-101599J0D01*
G01*
X136775999Y-87723600D01*
G75*
G02*
X136674400Y-87622001I0J101599D01*
G01*
G37*
%TD*%
%TO.C,R4*%
G36*
G01*
X130865600Y-84335999D02*
X130865600Y-85336001D01*
G75*
G02*
X130764001Y-85437600I-101599J0D01*
G01*
X129663999Y-85437600D01*
G75*
G02*
X129562400Y-85336001I0J101599D01*
G01*
X129562400Y-84335999D01*
G75*
G02*
X129663999Y-84234400I101599J0D01*
G01*
X130764001Y-84234400D01*
G75*
G02*
X130865600Y-84335999I0J-101599D01*
G01*
G37*
G36*
G01*
X132565600Y-84335999D02*
X132565600Y-85336001D01*
G75*
G02*
X132464001Y-85437600I-101599J0D01*
G01*
X131363999Y-85437600D01*
G75*
G02*
X131262400Y-85336001I0J101599D01*
G01*
X131262400Y-84335999D01*
G75*
G02*
X131363999Y-84234400I101599J0D01*
G01*
X132464001Y-84234400D01*
G75*
G02*
X132565600Y-84335999I0J-101599D01*
G01*
G37*
%TD*%
%TO.C,SJ1*%
G36*
G01*
X141859000Y-85585300D02*
X140589000Y-85585300D01*
G75*
G02*
X140487400Y-85483700I0J101600D01*
G01*
X140487400Y-84848700D01*
G75*
G02*
X140589000Y-84747100I101600J0D01*
G01*
X141859000Y-84747100D01*
G75*
G02*
X141960600Y-84848700I0J-101600D01*
G01*
X141960600Y-85483700D01*
G75*
G02*
X141859000Y-85585300I-101600J0D01*
G01*
G37*
G36*
G01*
X141859000Y-86398100D02*
X140589000Y-86398100D01*
G75*
G02*
X140487400Y-86296500I0J101600D01*
G01*
X140487400Y-85661500D01*
G75*
G02*
X140589000Y-85559900I101600J0D01*
G01*
X141859000Y-85559900D01*
G75*
G02*
X141960600Y-85661500I0J-101600D01*
G01*
X141960600Y-86296500D01*
G75*
G02*
X141859000Y-86398100I-101600J0D01*
G01*
G37*
G36*
G01*
X141859000Y-87210900D02*
X140589000Y-87210900D01*
G75*
G02*
X140487400Y-87109300I0J101600D01*
G01*
X140487400Y-86474300D01*
G75*
G02*
X140589000Y-86372700I101600J0D01*
G01*
X141859000Y-86372700D01*
G75*
G02*
X141960600Y-86474300I0J-101600D01*
G01*
X141960600Y-87109300D01*
G75*
G02*
X141859000Y-87210900I-101600J0D01*
G01*
G37*
%TD*%
D20*
%TO.C,STANDOFF1*%
X129540000Y-78740000D03*
%TD*%
%TO.C,STANDOFF2*%
X139700000Y-78740000D03*
%TD*%
M02*
