%TF.GenerationSoftware,KiCad,Pcbnew,5.1.8-db9833491~88~ubuntu20.04.1*%
%TF.CreationDate,2020-12-19T13:22:12+05:30*%
%TF.ProjectId,SparkFun_APDS-9960_RGB_and_Gesture_Sensor,53706172-6b46-4756-9e5f-415044532d39,rev?*%
%TF.SameCoordinates,Original*%
%TF.FileFunction,Legend,Bot*%
%TF.FilePolarity,Positive*%
%FSLAX46Y46*%
G04 Gerber Fmt 4.6, Leading zero omitted, Abs format (unit mm)*
G04 Created by KiCad (PCBNEW 5.1.8-db9833491~88~ubuntu20.04.1) date 2020-12-19 13:22:12*
%MOMM*%
%LPD*%
G01*
G04 APERTURE LIST*
%ADD10C,0.127000*%
%ADD11C,0.121920*%
%ADD12C,0.100000*%
%ADD13C,2.082800*%
%ADD14C,3.302000*%
G04 APERTURE END LIST*
D10*
X130193142Y-85815714D02*
X130011714Y-86323714D01*
X129830285Y-85815714D01*
X129140857Y-86323714D02*
X129576285Y-86323714D01*
X129358571Y-86323714D02*
X129358571Y-85561714D01*
X129431142Y-85670571D01*
X129503714Y-85743142D01*
X129576285Y-85779428D01*
X128669142Y-85561714D02*
X128596571Y-85561714D01*
X128524000Y-85598000D01*
X128487714Y-85634285D01*
X128451428Y-85706857D01*
X128415142Y-85852000D01*
X128415142Y-86033428D01*
X128451428Y-86178571D01*
X128487714Y-86251142D01*
X128524000Y-86287428D01*
X128596571Y-86323714D01*
X128669142Y-86323714D01*
X128741714Y-86287428D01*
X128778000Y-86251142D01*
X128814285Y-86178571D01*
X128850571Y-86033428D01*
X128850571Y-85852000D01*
X128814285Y-85706857D01*
X128778000Y-85634285D01*
X128741714Y-85598000D01*
X128669142Y-85561714D01*
D11*
X131398312Y-92953840D02*
X131471851Y-92917070D01*
X131582160Y-92917070D01*
X131692468Y-92953840D01*
X131766007Y-93027379D01*
X131802777Y-93100918D01*
X131839546Y-93247996D01*
X131839546Y-93358304D01*
X131802777Y-93505382D01*
X131766007Y-93578921D01*
X131692468Y-93652460D01*
X131582160Y-93689230D01*
X131508620Y-93689230D01*
X131398312Y-93652460D01*
X131361542Y-93615691D01*
X131361542Y-93358304D01*
X131508620Y-93358304D01*
X131030617Y-93689230D02*
X131030617Y-92917070D01*
X130589382Y-93689230D01*
X130589382Y-92917070D01*
X130221687Y-93689230D02*
X130221687Y-92917070D01*
X130037840Y-92917070D01*
X129927531Y-92953840D01*
X129853992Y-93027379D01*
X129817222Y-93100918D01*
X129780453Y-93247996D01*
X129780453Y-93358304D01*
X129817222Y-93505382D01*
X129853992Y-93578921D01*
X129927531Y-93652460D01*
X130037840Y-93689230D01*
X130221687Y-93689230D01*
X134379546Y-92917070D02*
X134122160Y-93689230D01*
X133864773Y-92917070D01*
X133166152Y-93615691D02*
X133202921Y-93652460D01*
X133313230Y-93689230D01*
X133386769Y-93689230D01*
X133497078Y-93652460D01*
X133570617Y-93578921D01*
X133607386Y-93505382D01*
X133644156Y-93358304D01*
X133644156Y-93247996D01*
X133607386Y-93100918D01*
X133570617Y-93027379D01*
X133497078Y-92953840D01*
X133386769Y-92917070D01*
X133313230Y-92917070D01*
X133202921Y-92953840D01*
X133166152Y-92990609D01*
X132393992Y-93615691D02*
X132430761Y-93652460D01*
X132541070Y-93689230D01*
X132614609Y-93689230D01*
X132724918Y-93652460D01*
X132798457Y-93578921D01*
X132835226Y-93505382D01*
X132871996Y-93358304D01*
X132871996Y-93247996D01*
X132835226Y-93100918D01*
X132798457Y-93027379D01*
X132724918Y-92953840D01*
X132614609Y-92917070D01*
X132541070Y-92917070D01*
X132430761Y-92953840D01*
X132393992Y-92990609D01*
X136827622Y-93652460D02*
X136717314Y-93689230D01*
X136533466Y-93689230D01*
X136459927Y-93652460D01*
X136423158Y-93615691D01*
X136386388Y-93542152D01*
X136386388Y-93468613D01*
X136423158Y-93395074D01*
X136459927Y-93358304D01*
X136533466Y-93321535D01*
X136680544Y-93284765D01*
X136754083Y-93247996D01*
X136790853Y-93211226D01*
X136827622Y-93137687D01*
X136827622Y-93064148D01*
X136790853Y-92990609D01*
X136754083Y-92953840D01*
X136680544Y-92917070D01*
X136496697Y-92917070D01*
X136386388Y-92953840D01*
X136055462Y-93689230D02*
X136055462Y-92917070D01*
X135871615Y-92917070D01*
X135761306Y-92953840D01*
X135687767Y-93027379D01*
X135650998Y-93100918D01*
X135614228Y-93247996D01*
X135614228Y-93358304D01*
X135650998Y-93505382D01*
X135687767Y-93578921D01*
X135761306Y-93652460D01*
X135871615Y-93689230D01*
X136055462Y-93689230D01*
X135320072Y-93468613D02*
X134952377Y-93468613D01*
X135393611Y-93689230D02*
X135136224Y-92917070D01*
X134878838Y-93689230D01*
X139349238Y-93652460D02*
X139238929Y-93689230D01*
X139055081Y-93689230D01*
X138981542Y-93652460D01*
X138944773Y-93615691D01*
X138908003Y-93542152D01*
X138908003Y-93468613D01*
X138944773Y-93395074D01*
X138981542Y-93358304D01*
X139055081Y-93321535D01*
X139202160Y-93284765D01*
X139275699Y-93247996D01*
X139312468Y-93211226D01*
X139349238Y-93137687D01*
X139349238Y-93064148D01*
X139312468Y-92990609D01*
X139275699Y-92953840D01*
X139202160Y-92917070D01*
X139018312Y-92917070D01*
X138908003Y-92953840D01*
X138135843Y-93615691D02*
X138172613Y-93652460D01*
X138282921Y-93689230D01*
X138356460Y-93689230D01*
X138466769Y-93652460D01*
X138540308Y-93578921D01*
X138577078Y-93505382D01*
X138613847Y-93358304D01*
X138613847Y-93247996D01*
X138577078Y-93100918D01*
X138540308Y-93027379D01*
X138466769Y-92953840D01*
X138356460Y-92917070D01*
X138282921Y-92917070D01*
X138172613Y-92953840D01*
X138135843Y-92990609D01*
X137437222Y-93689230D02*
X137804918Y-93689230D01*
X137804918Y-92917070D01*
X141668620Y-93689230D02*
X141668620Y-92917070D01*
X141300925Y-93689230D02*
X141300925Y-92917070D01*
X140859691Y-93689230D01*
X140859691Y-92917070D01*
X140602304Y-92917070D02*
X140161070Y-92917070D01*
X140381687Y-93689230D02*
X140381687Y-92917070D01*
D10*
X137849428Y-83820000D02*
X137486571Y-83820000D01*
X137922000Y-84037714D02*
X137668000Y-83275714D01*
X137414000Y-84037714D01*
X137160000Y-84037714D02*
X137160000Y-83275714D01*
X136869714Y-83275714D01*
X136797142Y-83312000D01*
X136760857Y-83348285D01*
X136724571Y-83420857D01*
X136724571Y-83529714D01*
X136760857Y-83602285D01*
X136797142Y-83638571D01*
X136869714Y-83674857D01*
X137160000Y-83674857D01*
X136398000Y-84037714D02*
X136398000Y-83275714D01*
X136216571Y-83275714D01*
X136107714Y-83312000D01*
X136035142Y-83384571D01*
X135998857Y-83457142D01*
X135962571Y-83602285D01*
X135962571Y-83711142D01*
X135998857Y-83856285D01*
X136035142Y-83928857D01*
X136107714Y-84001428D01*
X136216571Y-84037714D01*
X136398000Y-84037714D01*
X135672285Y-84001428D02*
X135563428Y-84037714D01*
X135382000Y-84037714D01*
X135309428Y-84001428D01*
X135273142Y-83965142D01*
X135236857Y-83892571D01*
X135236857Y-83820000D01*
X135273142Y-83747428D01*
X135309428Y-83711142D01*
X135382000Y-83674857D01*
X135527142Y-83638571D01*
X135599714Y-83602285D01*
X135636000Y-83566000D01*
X135672285Y-83493428D01*
X135672285Y-83420857D01*
X135636000Y-83348285D01*
X135599714Y-83312000D01*
X135527142Y-83275714D01*
X135345714Y-83275714D01*
X135236857Y-83312000D01*
X134910285Y-83747428D02*
X134329714Y-83747428D01*
X133930571Y-84037714D02*
X133785428Y-84037714D01*
X133712857Y-84001428D01*
X133676571Y-83965142D01*
X133604000Y-83856285D01*
X133567714Y-83711142D01*
X133567714Y-83420857D01*
X133604000Y-83348285D01*
X133640285Y-83312000D01*
X133712857Y-83275714D01*
X133858000Y-83275714D01*
X133930571Y-83312000D01*
X133966857Y-83348285D01*
X134003142Y-83420857D01*
X134003142Y-83602285D01*
X133966857Y-83674857D01*
X133930571Y-83711142D01*
X133858000Y-83747428D01*
X133712857Y-83747428D01*
X133640285Y-83711142D01*
X133604000Y-83674857D01*
X133567714Y-83602285D01*
X133204857Y-84037714D02*
X133059714Y-84037714D01*
X132987142Y-84001428D01*
X132950857Y-83965142D01*
X132878285Y-83856285D01*
X132842000Y-83711142D01*
X132842000Y-83420857D01*
X132878285Y-83348285D01*
X132914571Y-83312000D01*
X132987142Y-83275714D01*
X133132285Y-83275714D01*
X133204857Y-83312000D01*
X133241142Y-83348285D01*
X133277428Y-83420857D01*
X133277428Y-83602285D01*
X133241142Y-83674857D01*
X133204857Y-83711142D01*
X133132285Y-83747428D01*
X132987142Y-83747428D01*
X132914571Y-83711142D01*
X132878285Y-83674857D01*
X132842000Y-83602285D01*
X132188857Y-83275714D02*
X132334000Y-83275714D01*
X132406571Y-83312000D01*
X132442857Y-83348285D01*
X132515428Y-83457142D01*
X132551714Y-83602285D01*
X132551714Y-83892571D01*
X132515428Y-83965142D01*
X132479142Y-84001428D01*
X132406571Y-84037714D01*
X132261428Y-84037714D01*
X132188857Y-84001428D01*
X132152571Y-83965142D01*
X132116285Y-83892571D01*
X132116285Y-83711142D01*
X132152571Y-83638571D01*
X132188857Y-83602285D01*
X132261428Y-83566000D01*
X132406571Y-83566000D01*
X132479142Y-83602285D01*
X132515428Y-83638571D01*
X132551714Y-83711142D01*
X131644571Y-83275714D02*
X131572000Y-83275714D01*
X131499428Y-83312000D01*
X131463142Y-83348285D01*
X131426857Y-83420857D01*
X131390571Y-83566000D01*
X131390571Y-83747428D01*
X131426857Y-83892571D01*
X131463142Y-83965142D01*
X131499428Y-84001428D01*
X131572000Y-84037714D01*
X131644571Y-84037714D01*
X131717142Y-84001428D01*
X131753428Y-83965142D01*
X131789714Y-83892571D01*
X131826000Y-83747428D01*
X131826000Y-83566000D01*
X131789714Y-83420857D01*
X131753428Y-83348285D01*
X131717142Y-83312000D01*
X131644571Y-83275714D01*
X137686142Y-86323714D02*
X137940142Y-85960857D01*
X138121571Y-86323714D02*
X138121571Y-85561714D01*
X137831285Y-85561714D01*
X137758714Y-85598000D01*
X137722428Y-85634285D01*
X137686142Y-85706857D01*
X137686142Y-85815714D01*
X137722428Y-85888285D01*
X137758714Y-85924571D01*
X137831285Y-85960857D01*
X138121571Y-85960857D01*
X136960428Y-85598000D02*
X137033000Y-85561714D01*
X137141857Y-85561714D01*
X137250714Y-85598000D01*
X137323285Y-85670571D01*
X137359571Y-85743142D01*
X137395857Y-85888285D01*
X137395857Y-85997142D01*
X137359571Y-86142285D01*
X137323285Y-86214857D01*
X137250714Y-86287428D01*
X137141857Y-86323714D01*
X137069285Y-86323714D01*
X136960428Y-86287428D01*
X136924142Y-86251142D01*
X136924142Y-85997142D01*
X137069285Y-85997142D01*
X136343571Y-85924571D02*
X136234714Y-85960857D01*
X136198428Y-85997142D01*
X136162142Y-86069714D01*
X136162142Y-86178571D01*
X136198428Y-86251142D01*
X136234714Y-86287428D01*
X136307285Y-86323714D01*
X136597571Y-86323714D01*
X136597571Y-85561714D01*
X136343571Y-85561714D01*
X136271000Y-85598000D01*
X136234714Y-85634285D01*
X136198428Y-85706857D01*
X136198428Y-85779428D01*
X136234714Y-85852000D01*
X136271000Y-85888285D01*
X136343571Y-85924571D01*
X136597571Y-85924571D01*
X135291285Y-85525428D02*
X135944428Y-86505142D01*
X134638142Y-85598000D02*
X134710714Y-85561714D01*
X134819571Y-85561714D01*
X134928428Y-85598000D01*
X135001000Y-85670571D01*
X135037285Y-85743142D01*
X135073571Y-85888285D01*
X135073571Y-85997142D01*
X135037285Y-86142285D01*
X135001000Y-86214857D01*
X134928428Y-86287428D01*
X134819571Y-86323714D01*
X134747000Y-86323714D01*
X134638142Y-86287428D01*
X134601857Y-86251142D01*
X134601857Y-85997142D01*
X134747000Y-85997142D01*
X133985000Y-86287428D02*
X134057571Y-86323714D01*
X134202714Y-86323714D01*
X134275285Y-86287428D01*
X134311571Y-86214857D01*
X134311571Y-85924571D01*
X134275285Y-85852000D01*
X134202714Y-85815714D01*
X134057571Y-85815714D01*
X133985000Y-85852000D01*
X133948714Y-85924571D01*
X133948714Y-85997142D01*
X134311571Y-86069714D01*
X133658428Y-86287428D02*
X133585857Y-86323714D01*
X133440714Y-86323714D01*
X133368142Y-86287428D01*
X133331857Y-86214857D01*
X133331857Y-86178571D01*
X133368142Y-86106000D01*
X133440714Y-86069714D01*
X133549571Y-86069714D01*
X133622142Y-86033428D01*
X133658428Y-85960857D01*
X133658428Y-85924571D01*
X133622142Y-85852000D01*
X133549571Y-85815714D01*
X133440714Y-85815714D01*
X133368142Y-85852000D01*
X133114142Y-85815714D02*
X132823857Y-85815714D01*
X133005285Y-85561714D02*
X133005285Y-86214857D01*
X132969000Y-86287428D01*
X132896428Y-86323714D01*
X132823857Y-86323714D01*
X132243285Y-85815714D02*
X132243285Y-86323714D01*
X132569857Y-85815714D02*
X132569857Y-86214857D01*
X132533571Y-86287428D01*
X132461000Y-86323714D01*
X132352142Y-86323714D01*
X132279571Y-86287428D01*
X132243285Y-86251142D01*
X131880428Y-86323714D02*
X131880428Y-85815714D01*
X131880428Y-85960857D02*
X131844142Y-85888285D01*
X131807857Y-85852000D01*
X131735285Y-85815714D01*
X131662714Y-85815714D01*
X131118428Y-86287428D02*
X131191000Y-86323714D01*
X131336142Y-86323714D01*
X131408714Y-86287428D01*
X131445000Y-86214857D01*
X131445000Y-85924571D01*
X131408714Y-85852000D01*
X131336142Y-85815714D01*
X131191000Y-85815714D01*
X131118428Y-85852000D01*
X131082142Y-85924571D01*
X131082142Y-85997142D01*
X131445000Y-86069714D01*
D11*
X137267405Y-92429390D02*
X137267405Y-91657230D01*
X136936480Y-91730769D02*
X136899710Y-91694000D01*
X136826171Y-91657230D01*
X136642323Y-91657230D01*
X136568784Y-91694000D01*
X136532015Y-91730769D01*
X136495245Y-91804308D01*
X136495245Y-91877847D01*
X136532015Y-91988156D01*
X136973249Y-92429390D01*
X136495245Y-92429390D01*
X135723085Y-92355851D02*
X135759855Y-92392620D01*
X135870163Y-92429390D01*
X135943702Y-92429390D01*
X136054011Y-92392620D01*
X136127550Y-92319081D01*
X136164320Y-92245542D01*
X136201089Y-92098464D01*
X136201089Y-91988156D01*
X136164320Y-91841078D01*
X136127550Y-91767539D01*
X136054011Y-91694000D01*
X135943702Y-91657230D01*
X135870163Y-91657230D01*
X135759855Y-91694000D01*
X135723085Y-91730769D01*
X135392160Y-92355851D02*
X135355390Y-92392620D01*
X135392160Y-92429390D01*
X135428929Y-92392620D01*
X135392160Y-92355851D01*
X135392160Y-92429390D01*
X135392160Y-91951386D02*
X135355390Y-91988156D01*
X135392160Y-92024925D01*
X135428929Y-91988156D01*
X135392160Y-91951386D01*
X135392160Y-92024925D01*
X134289074Y-91657230D02*
X134215535Y-91657230D01*
X134141996Y-91694000D01*
X134105226Y-91730769D01*
X134068457Y-91804308D01*
X134031687Y-91951386D01*
X134031687Y-92135234D01*
X134068457Y-92282312D01*
X134105226Y-92355851D01*
X134141996Y-92392620D01*
X134215535Y-92429390D01*
X134289074Y-92429390D01*
X134362613Y-92392620D01*
X134399382Y-92355851D01*
X134436152Y-92282312D01*
X134472921Y-92135234D01*
X134472921Y-91951386D01*
X134436152Y-91804308D01*
X134399382Y-91730769D01*
X134362613Y-91694000D01*
X134289074Y-91657230D01*
X133774300Y-92429390D02*
X133369836Y-91914617D01*
X133774300Y-91914617D02*
X133369836Y-92429390D01*
X133149219Y-91657230D02*
X132671215Y-91657230D01*
X132928601Y-91951386D01*
X132818293Y-91951386D01*
X132744754Y-91988156D01*
X132707984Y-92024925D01*
X132671215Y-92098464D01*
X132671215Y-92282312D01*
X132707984Y-92355851D01*
X132744754Y-92392620D01*
X132818293Y-92429390D01*
X133038910Y-92429390D01*
X133112449Y-92392620D01*
X133149219Y-92355851D01*
X132303520Y-92429390D02*
X132156441Y-92429390D01*
X132082902Y-92392620D01*
X132046133Y-92355851D01*
X131972594Y-92245542D01*
X131935824Y-92098464D01*
X131935824Y-91804308D01*
X131972594Y-91730769D01*
X132009363Y-91694000D01*
X132082902Y-91657230D01*
X132229980Y-91657230D01*
X132303520Y-91694000D01*
X132340289Y-91730769D01*
X132377059Y-91804308D01*
X132377059Y-91988156D01*
X132340289Y-92061695D01*
X132303520Y-92098464D01*
X132229980Y-92135234D01*
X132082902Y-92135234D01*
X132009363Y-92098464D01*
X131972594Y-92061695D01*
X131935824Y-91988156D01*
X128839927Y-92917070D02*
X128582540Y-93689230D01*
X128325154Y-92917070D01*
X127700072Y-93689230D02*
X128067767Y-93689230D01*
X128067767Y-92917070D01*
D12*
%TO.C,LOGO1*%
G36*
X139906000Y-90548000D02*
G01*
X139906000Y-90608000D01*
X139886000Y-90658000D01*
X139856000Y-90698000D01*
X139816000Y-90728000D01*
X139776000Y-90758000D01*
X139716000Y-90768000D01*
X139666000Y-90778000D01*
X139606000Y-90788000D01*
X139566000Y-90778000D01*
X139526000Y-90778000D01*
X139486000Y-90768000D01*
X139446000Y-90748000D01*
X139406000Y-90718000D01*
X139376000Y-90688000D01*
X139366000Y-90648000D01*
X139356000Y-90608000D01*
X139366000Y-90568000D01*
X139386000Y-90528000D01*
X139426000Y-90498000D01*
X139476000Y-90468000D01*
X139536000Y-90448000D01*
X139616000Y-90428000D01*
X139696000Y-90408000D01*
X139796000Y-90388000D01*
X139886000Y-90368000D01*
X139966000Y-90338000D01*
X140036000Y-90308000D01*
X140106000Y-90268000D01*
X140166000Y-90228000D01*
X140206000Y-90168000D01*
X140236000Y-90098000D01*
X140246000Y-90008000D01*
X140236000Y-89888000D01*
X140196000Y-89788000D01*
X140126000Y-89708000D01*
X140056000Y-89648000D01*
X139956000Y-89598000D01*
X139856000Y-89578000D01*
X139746000Y-89558000D01*
X139626000Y-89558000D01*
X139516000Y-89558000D01*
X139406000Y-89578000D01*
X139306000Y-89608000D01*
X139216000Y-89648000D01*
X139136000Y-89708000D01*
X139076000Y-89788000D01*
X139026000Y-89888000D01*
X139006000Y-90008000D01*
X139056000Y-90008000D01*
X139096000Y-90008000D01*
X139146000Y-90008000D01*
X139186000Y-90008000D01*
X139236000Y-90008000D01*
X139286000Y-90008000D01*
X139326000Y-90008000D01*
X139376000Y-90008000D01*
X139386000Y-89958000D01*
X139406000Y-89908000D01*
X139426000Y-89878000D01*
X139456000Y-89858000D01*
X139496000Y-89838000D01*
X139546000Y-89818000D01*
X139586000Y-89818000D01*
X139636000Y-89818000D01*
X139676000Y-89818000D01*
X139716000Y-89818000D01*
X139746000Y-89828000D01*
X139786000Y-89838000D01*
X139816000Y-89848000D01*
X139836000Y-89878000D01*
X139856000Y-89908000D01*
X139856000Y-89948000D01*
X139846000Y-89988000D01*
X139816000Y-90028000D01*
X139776000Y-90058000D01*
X139716000Y-90088000D01*
X139656000Y-90108000D01*
X139576000Y-90118000D01*
X139496000Y-90138000D01*
X139416000Y-90158000D01*
X139336000Y-90178000D01*
X139246000Y-90198000D01*
X139176000Y-90238000D01*
X139106000Y-90278000D01*
X139046000Y-90328000D01*
X139006000Y-90388000D01*
X138976000Y-90458000D01*
X138966000Y-90548000D01*
X138986000Y-90678000D01*
X139026000Y-90788000D01*
X139086000Y-90868000D01*
X139166000Y-90938000D01*
X139266000Y-90988000D01*
X139376000Y-91018000D01*
X139496000Y-91038000D01*
X139616000Y-91048000D01*
X139736000Y-91038000D01*
X139856000Y-91018000D01*
X139966000Y-90988000D01*
X140066000Y-90938000D01*
X140146000Y-90868000D01*
X140216000Y-90778000D01*
X140256000Y-90678000D01*
X140276000Y-90548000D01*
X140236000Y-90548000D01*
X140186000Y-90548000D01*
X140136000Y-90548000D01*
X140096000Y-90548000D01*
X140046000Y-90548000D01*
X140006000Y-90548000D01*
X139956000Y-90548000D01*
X139906000Y-90548000D01*
G37*
G36*
X137806000Y-90548000D02*
G01*
X137776000Y-90468000D01*
X137766000Y-90388000D01*
X137766000Y-90308000D01*
X137376000Y-90318000D01*
X137386000Y-90458000D01*
X137416000Y-90588000D01*
X137466000Y-90708000D01*
X137806000Y-90548000D01*
G37*
G36*
X137466000Y-90708000D02*
G01*
X137526000Y-90818000D01*
X137616000Y-90908000D01*
X137726000Y-90988000D01*
X137846000Y-91028000D01*
X137996000Y-91048000D01*
X138056000Y-91038000D01*
X138116000Y-91028000D01*
X138176000Y-91018000D01*
X138236000Y-90988000D01*
X138286000Y-90958000D01*
X138336000Y-90928000D01*
X138376000Y-90878000D01*
X138416000Y-90828000D01*
X138426000Y-90828000D01*
X138426000Y-90958000D01*
X138426000Y-91088000D01*
X138426000Y-91208000D01*
X138426000Y-91338000D01*
X138426000Y-91468000D01*
X138426000Y-91598000D01*
X138426000Y-91718000D01*
X138426000Y-91848000D01*
X138466000Y-91808000D01*
X138516000Y-91758000D01*
X138566000Y-91718000D01*
X138616000Y-91678000D01*
X138666000Y-91638000D01*
X138716000Y-91588000D01*
X138756000Y-91548000D01*
X138806000Y-91508000D01*
X138806000Y-91268000D01*
X138806000Y-91038000D01*
X138806000Y-90808000D01*
X138806000Y-90578000D01*
X138806000Y-90348000D01*
X138806000Y-90118000D01*
X138806000Y-89888000D01*
X138806000Y-89658000D01*
X138766000Y-89648000D01*
X138716000Y-89638000D01*
X138666000Y-89638000D01*
X138626000Y-89628000D01*
X138576000Y-89618000D01*
X138536000Y-89608000D01*
X138486000Y-89598000D01*
X138436000Y-89588000D01*
X138436000Y-89618000D01*
X138436000Y-89638000D01*
X138436000Y-89658000D01*
X138436000Y-89678000D01*
X138436000Y-89708000D01*
X138436000Y-89728000D01*
X138436000Y-89748000D01*
X138436000Y-89768000D01*
X138396000Y-89718000D01*
X138356000Y-89678000D01*
X138306000Y-89638000D01*
X138256000Y-89608000D01*
X138206000Y-89578000D01*
X138146000Y-89568000D01*
X138086000Y-89558000D01*
X138016000Y-89558000D01*
X137866000Y-89568000D01*
X137726000Y-89618000D01*
X137616000Y-89688000D01*
X137526000Y-89788000D01*
X137456000Y-89898000D01*
X137416000Y-90028000D01*
X137386000Y-90168000D01*
X137376000Y-90318000D01*
X137766000Y-90308000D01*
X137766000Y-90218000D01*
X137776000Y-90138000D01*
X137806000Y-90058000D01*
X137836000Y-89988000D01*
X137886000Y-89928000D01*
X137946000Y-89888000D01*
X138016000Y-89858000D01*
X138106000Y-89848000D01*
X138186000Y-89858000D01*
X138266000Y-89888000D01*
X138316000Y-89928000D01*
X138366000Y-89988000D01*
X138396000Y-90058000D01*
X138426000Y-90138000D01*
X138436000Y-90218000D01*
X138436000Y-90308000D01*
X138436000Y-90388000D01*
X138416000Y-90468000D01*
X138396000Y-90548000D01*
X138366000Y-90618000D01*
X138316000Y-90668000D01*
X138256000Y-90718000D01*
X138186000Y-90738000D01*
X138096000Y-90748000D01*
X138016000Y-90738000D01*
X137936000Y-90718000D01*
X137876000Y-90668000D01*
X137836000Y-90618000D01*
X137806000Y-90548000D01*
X137466000Y-90708000D01*
G37*
G36*
X136786000Y-90198000D02*
G01*
X136696000Y-90188000D01*
X136606000Y-90178000D01*
X136536000Y-90168000D01*
X136486000Y-90368000D01*
X136506000Y-90378000D01*
X136526000Y-90378000D01*
X136556000Y-90388000D01*
X136576000Y-90388000D01*
X136596000Y-90388000D01*
X136626000Y-90398000D01*
X136646000Y-90398000D01*
X136666000Y-90398000D01*
X136686000Y-90408000D01*
X136706000Y-90408000D01*
X136786000Y-90198000D01*
G37*
G36*
X136706000Y-90408000D02*
G01*
X136736000Y-90418000D01*
X136756000Y-90428000D01*
X136766000Y-90438000D01*
X136786000Y-90448000D01*
X136806000Y-90458000D01*
X136816000Y-90468000D01*
X136836000Y-90478000D01*
X136846000Y-90498000D01*
X136856000Y-90518000D01*
X136866000Y-90538000D01*
X136866000Y-90558000D01*
X136876000Y-90578000D01*
X136876000Y-90608000D01*
X136876000Y-90628000D01*
X136866000Y-90658000D01*
X136866000Y-90678000D01*
X136856000Y-90698000D01*
X136846000Y-90708000D01*
X136836000Y-90728000D01*
X136816000Y-90738000D01*
X136806000Y-90748000D01*
X136786000Y-90758000D01*
X136766000Y-90768000D01*
X136746000Y-90768000D01*
X136726000Y-90778000D01*
X136706000Y-90778000D01*
X136686000Y-90788000D01*
X136656000Y-90788000D01*
X136636000Y-90788000D01*
X136586000Y-90778000D01*
X136536000Y-90778000D01*
X136496000Y-90758000D01*
X136456000Y-90748000D01*
X136426000Y-90728000D01*
X136406000Y-90708000D01*
X136386000Y-90678000D01*
X136366000Y-90658000D01*
X136356000Y-90628000D01*
X136346000Y-90598000D01*
X136336000Y-90578000D01*
X136326000Y-90548000D01*
X136326000Y-90518000D01*
X136326000Y-90498000D01*
X136326000Y-90478000D01*
X136326000Y-90458000D01*
X136326000Y-90448000D01*
X136326000Y-90438000D01*
X136326000Y-90428000D01*
X136326000Y-90418000D01*
X136326000Y-90408000D01*
X136326000Y-90398000D01*
X136326000Y-90388000D01*
X136326000Y-90378000D01*
X136326000Y-90368000D01*
X136326000Y-90358000D01*
X136326000Y-90348000D01*
X136326000Y-90338000D01*
X136326000Y-90328000D01*
X136326000Y-90318000D01*
X136336000Y-90328000D01*
X136346000Y-90338000D01*
X136366000Y-90338000D01*
X136386000Y-90348000D01*
X136406000Y-90358000D01*
X136426000Y-90358000D01*
X136446000Y-90368000D01*
X136466000Y-90368000D01*
X136486000Y-90368000D01*
X136536000Y-90168000D01*
X136466000Y-90148000D01*
X136406000Y-90128000D01*
X136356000Y-90098000D01*
X136326000Y-90058000D01*
X136326000Y-90008000D01*
X136326000Y-89978000D01*
X136326000Y-89948000D01*
X136336000Y-89928000D01*
X136346000Y-89908000D01*
X136356000Y-89888000D01*
X136366000Y-89878000D01*
X136376000Y-89858000D01*
X136396000Y-89848000D01*
X136416000Y-89838000D01*
X136436000Y-89828000D01*
X136456000Y-89828000D01*
X136476000Y-89818000D01*
X136496000Y-89818000D01*
X136526000Y-89818000D01*
X136546000Y-89818000D01*
X136576000Y-89818000D01*
X136596000Y-89818000D01*
X136626000Y-89818000D01*
X136656000Y-89818000D01*
X136676000Y-89828000D01*
X136696000Y-89838000D01*
X136716000Y-89848000D01*
X136736000Y-89858000D01*
X136756000Y-89868000D01*
X136766000Y-89878000D01*
X136786000Y-89898000D01*
X136796000Y-89908000D01*
X136806000Y-89928000D01*
X136816000Y-89958000D01*
X136826000Y-89978000D01*
X136826000Y-89998000D01*
X136826000Y-90028000D01*
X136856000Y-90028000D01*
X136876000Y-90028000D01*
X136906000Y-90028000D01*
X136926000Y-90028000D01*
X136956000Y-90028000D01*
X136976000Y-90028000D01*
X136996000Y-90028000D01*
X137026000Y-90028000D01*
X137046000Y-90028000D01*
X137076000Y-90028000D01*
X137096000Y-90028000D01*
X137126000Y-90028000D01*
X137146000Y-90028000D01*
X137166000Y-90028000D01*
X137196000Y-90028000D01*
X137216000Y-90028000D01*
X137206000Y-89968000D01*
X137196000Y-89908000D01*
X137176000Y-89848000D01*
X137146000Y-89808000D01*
X137116000Y-89758000D01*
X137086000Y-89718000D01*
X137046000Y-89688000D01*
X136996000Y-89658000D01*
X136946000Y-89628000D01*
X136896000Y-89608000D01*
X136846000Y-89598000D01*
X136786000Y-89578000D01*
X136726000Y-89568000D01*
X136676000Y-89558000D01*
X136616000Y-89558000D01*
X136556000Y-89558000D01*
X136496000Y-89558000D01*
X136446000Y-89558000D01*
X136396000Y-89568000D01*
X136336000Y-89568000D01*
X136286000Y-89578000D01*
X136236000Y-89598000D01*
X136186000Y-89608000D01*
X136136000Y-89628000D01*
X136096000Y-89658000D01*
X136056000Y-89688000D01*
X136016000Y-89718000D01*
X135986000Y-89758000D01*
X135966000Y-89798000D01*
X135946000Y-89848000D01*
X135936000Y-89898000D01*
X135936000Y-89958000D01*
X135936000Y-90008000D01*
X135936000Y-90048000D01*
X135936000Y-90098000D01*
X135936000Y-90148000D01*
X135936000Y-90188000D01*
X135936000Y-90238000D01*
X135936000Y-90278000D01*
X135936000Y-90328000D01*
X135936000Y-90378000D01*
X135936000Y-90418000D01*
X135936000Y-90468000D01*
X135936000Y-90508000D01*
X135936000Y-90558000D01*
X135936000Y-90608000D01*
X135936000Y-90648000D01*
X135936000Y-90698000D01*
X135936000Y-90718000D01*
X135936000Y-90748000D01*
X135936000Y-90768000D01*
X135926000Y-90788000D01*
X135926000Y-90818000D01*
X135926000Y-90838000D01*
X135926000Y-90858000D01*
X135926000Y-90878000D01*
X135916000Y-90898000D01*
X135916000Y-90918000D01*
X135906000Y-90938000D01*
X135906000Y-90958000D01*
X135906000Y-90968000D01*
X135896000Y-90988000D01*
X135886000Y-90998000D01*
X135886000Y-91008000D01*
X135906000Y-91008000D01*
X135936000Y-91008000D01*
X135956000Y-91008000D01*
X135986000Y-91008000D01*
X136006000Y-91008000D01*
X136036000Y-91008000D01*
X136056000Y-91008000D01*
X136076000Y-91008000D01*
X136106000Y-91008000D01*
X136126000Y-91008000D01*
X136156000Y-91008000D01*
X136176000Y-91008000D01*
X136206000Y-91008000D01*
X136226000Y-91008000D01*
X136256000Y-91008000D01*
X136276000Y-91008000D01*
X136276000Y-90998000D01*
X136286000Y-90988000D01*
X136286000Y-90978000D01*
X136296000Y-90968000D01*
X136296000Y-90958000D01*
X136296000Y-90948000D01*
X136296000Y-90938000D01*
X136306000Y-90928000D01*
X136306000Y-90918000D01*
X136306000Y-90908000D01*
X136306000Y-90898000D01*
X136306000Y-90888000D01*
X136306000Y-90878000D01*
X136306000Y-90868000D01*
X136326000Y-90898000D01*
X136356000Y-90918000D01*
X136376000Y-90938000D01*
X136406000Y-90958000D01*
X136436000Y-90968000D01*
X136466000Y-90988000D01*
X136496000Y-90998000D01*
X136526000Y-91008000D01*
X136556000Y-91018000D01*
X136586000Y-91028000D01*
X136616000Y-91028000D01*
X136646000Y-91038000D01*
X136686000Y-91038000D01*
X136716000Y-91048000D01*
X136746000Y-91048000D01*
X136776000Y-91048000D01*
X136826000Y-91048000D01*
X136876000Y-91038000D01*
X136926000Y-91038000D01*
X136966000Y-91028000D01*
X137016000Y-91008000D01*
X137056000Y-90988000D01*
X137086000Y-90968000D01*
X137126000Y-90948000D01*
X137156000Y-90918000D01*
X137176000Y-90888000D01*
X137206000Y-90848000D01*
X137226000Y-90818000D01*
X137236000Y-90768000D01*
X137256000Y-90728000D01*
X137256000Y-90678000D01*
X137266000Y-90628000D01*
X137246000Y-90518000D01*
X137216000Y-90428000D01*
X137176000Y-90358000D01*
X137106000Y-90298000D01*
X137036000Y-90258000D01*
X136956000Y-90228000D01*
X136876000Y-90208000D01*
X136786000Y-90198000D01*
X136706000Y-90408000D01*
G37*
G36*
X135716000Y-89658000D02*
G01*
X135666000Y-89648000D01*
X135626000Y-89638000D01*
X135576000Y-89638000D01*
X135526000Y-89628000D01*
X135486000Y-89618000D01*
X135436000Y-89608000D01*
X135386000Y-89598000D01*
X135346000Y-89588000D01*
X135346000Y-89628000D01*
X135346000Y-89658000D01*
X135346000Y-89688000D01*
X135346000Y-89728000D01*
X135346000Y-89758000D01*
X135346000Y-89788000D01*
X135346000Y-89818000D01*
X135346000Y-89858000D01*
X135306000Y-89788000D01*
X135266000Y-89738000D01*
X135216000Y-89678000D01*
X135166000Y-89638000D01*
X135096000Y-89598000D01*
X135036000Y-89578000D01*
X134966000Y-89558000D01*
X134886000Y-89558000D01*
X134876000Y-89558000D01*
X134866000Y-89558000D01*
X134856000Y-89558000D01*
X134846000Y-89558000D01*
X134836000Y-89558000D01*
X134826000Y-89558000D01*
X134816000Y-89568000D01*
X134806000Y-89568000D01*
X134806000Y-89618000D01*
X134806000Y-89658000D01*
X134806000Y-89708000D01*
X134806000Y-89748000D01*
X134806000Y-89798000D01*
X134806000Y-89838000D01*
X134806000Y-89888000D01*
X134806000Y-89928000D01*
X134816000Y-89928000D01*
X134836000Y-89918000D01*
X134856000Y-89918000D01*
X134876000Y-89918000D01*
X134886000Y-89918000D01*
X134906000Y-89918000D01*
X134926000Y-89918000D01*
X134946000Y-89918000D01*
X135046000Y-89928000D01*
X135126000Y-89948000D01*
X135196000Y-89988000D01*
X135246000Y-90048000D01*
X135286000Y-90118000D01*
X135306000Y-90188000D01*
X135326000Y-90278000D01*
X135326000Y-90368000D01*
X135326000Y-90448000D01*
X135326000Y-90528000D01*
X135326000Y-90608000D01*
X135326000Y-90688000D01*
X135326000Y-90768000D01*
X135326000Y-90848000D01*
X135326000Y-90928000D01*
X135326000Y-91008000D01*
X135376000Y-91008000D01*
X135426000Y-91008000D01*
X135476000Y-91008000D01*
X135526000Y-91008000D01*
X135576000Y-91008000D01*
X135616000Y-91008000D01*
X135666000Y-91008000D01*
X135716000Y-91008000D01*
X135716000Y-90838000D01*
X135716000Y-90668000D01*
X135716000Y-90498000D01*
X135716000Y-90328000D01*
X135716000Y-90168000D01*
X135716000Y-89998000D01*
X135716000Y-89828000D01*
X135716000Y-89658000D01*
G37*
G36*
X134656000Y-89268000D02*
G01*
X134266000Y-89058000D01*
X134266000Y-90098000D01*
X133776000Y-89588000D01*
X133316000Y-89588000D01*
X133846000Y-90108000D01*
X133256000Y-91008000D01*
X133726000Y-91008000D01*
X134116000Y-90378000D01*
X134266000Y-90518000D01*
X134266000Y-91008000D01*
X134656000Y-91008000D01*
X134656000Y-89268000D01*
G37*
G36*
X133016000Y-89848000D02*
G01*
X133066000Y-89848000D01*
X133116000Y-89848000D01*
X133166000Y-89848000D01*
X133206000Y-89848000D01*
X133256000Y-89848000D01*
X133306000Y-89848000D01*
X133356000Y-89848000D01*
X133406000Y-89848000D01*
X133366000Y-89818000D01*
X133336000Y-89788000D01*
X133306000Y-89758000D01*
X133266000Y-89718000D01*
X133236000Y-89688000D01*
X133206000Y-89658000D01*
X133166000Y-89628000D01*
X133136000Y-89588000D01*
X133126000Y-89588000D01*
X133106000Y-89588000D01*
X133096000Y-89588000D01*
X133076000Y-89588000D01*
X133066000Y-89588000D01*
X133046000Y-89588000D01*
X133036000Y-89588000D01*
X133016000Y-89588000D01*
X133016000Y-89578000D01*
X133016000Y-89568000D01*
X133016000Y-89548000D01*
X133016000Y-89538000D01*
X133016000Y-89528000D01*
X133016000Y-89508000D01*
X133016000Y-89498000D01*
X133016000Y-89488000D01*
X133016000Y-89388000D01*
X132986000Y-89308000D01*
X132956000Y-89238000D01*
X132906000Y-89178000D01*
X132836000Y-89128000D01*
X132756000Y-89088000D01*
X132656000Y-89058000D01*
X132546000Y-89058000D01*
X132516000Y-89058000D01*
X132496000Y-89058000D01*
X132466000Y-89058000D01*
X132446000Y-89058000D01*
X132416000Y-89058000D01*
X132396000Y-89058000D01*
X132366000Y-89058000D01*
X132346000Y-89068000D01*
X132346000Y-89098000D01*
X132346000Y-89138000D01*
X132346000Y-89168000D01*
X132346000Y-89208000D01*
X132346000Y-89248000D01*
X132346000Y-89278000D01*
X132346000Y-89318000D01*
X132346000Y-89348000D01*
X132356000Y-89348000D01*
X132376000Y-89348000D01*
X132396000Y-89348000D01*
X132416000Y-89348000D01*
X132426000Y-89348000D01*
X132446000Y-89348000D01*
X132466000Y-89348000D01*
X132486000Y-89348000D01*
X132516000Y-89348000D01*
X132556000Y-89358000D01*
X132576000Y-89368000D01*
X132596000Y-89378000D01*
X132616000Y-89408000D01*
X132626000Y-89428000D01*
X132626000Y-89468000D01*
X132636000Y-89508000D01*
X132636000Y-89518000D01*
X132636000Y-89528000D01*
X132636000Y-89538000D01*
X132636000Y-89548000D01*
X132636000Y-89558000D01*
X132636000Y-89568000D01*
X132636000Y-89578000D01*
X132636000Y-89588000D01*
X132596000Y-89588000D01*
X132566000Y-89588000D01*
X132526000Y-89588000D01*
X132496000Y-89588000D01*
X132466000Y-89588000D01*
X132426000Y-89588000D01*
X132396000Y-89588000D01*
X132366000Y-89588000D01*
X132366000Y-89628000D01*
X132366000Y-89658000D01*
X132366000Y-89688000D01*
X132366000Y-89718000D01*
X132366000Y-89758000D01*
X132366000Y-89788000D01*
X132366000Y-89818000D01*
X132366000Y-89848000D01*
X132396000Y-89848000D01*
X132426000Y-89848000D01*
X132466000Y-89848000D01*
X132496000Y-89848000D01*
X132526000Y-89848000D01*
X132566000Y-89848000D01*
X132596000Y-89848000D01*
X132636000Y-89848000D01*
X132636000Y-89998000D01*
X132636000Y-90138000D01*
X132636000Y-90288000D01*
X132636000Y-90428000D01*
X132636000Y-90578000D01*
X132636000Y-90718000D01*
X132636000Y-90858000D01*
X132636000Y-91008000D01*
X132676000Y-91008000D01*
X132726000Y-91008000D01*
X132776000Y-91008000D01*
X132826000Y-91008000D01*
X132876000Y-91008000D01*
X132926000Y-91008000D01*
X132976000Y-91008000D01*
X133016000Y-91008000D01*
X133016000Y-90858000D01*
X133016000Y-90718000D01*
X133016000Y-90578000D01*
X133016000Y-90428000D01*
X133016000Y-90288000D01*
X133016000Y-90138000D01*
X133016000Y-89998000D01*
X133016000Y-89848000D01*
G37*
G36*
X130926000Y-91008000D02*
G01*
X130976000Y-91008000D01*
X131016000Y-91008000D01*
X131066000Y-91008000D01*
X131116000Y-91008000D01*
X131156000Y-91008000D01*
X131206000Y-91008000D01*
X131246000Y-91008000D01*
X131296000Y-91008000D01*
X131296000Y-90978000D01*
X131296000Y-90958000D01*
X131296000Y-90928000D01*
X131296000Y-90908000D01*
X131296000Y-90888000D01*
X131296000Y-90858000D01*
X131296000Y-90838000D01*
X131296000Y-90808000D01*
X131306000Y-90808000D01*
X131346000Y-90868000D01*
X131386000Y-90918000D01*
X131436000Y-90958000D01*
X131496000Y-90988000D01*
X131546000Y-91008000D01*
X131606000Y-91028000D01*
X131676000Y-91038000D01*
X131736000Y-91048000D01*
X131876000Y-91038000D01*
X131986000Y-90998000D01*
X132076000Y-90948000D01*
X132146000Y-90888000D01*
X132196000Y-90798000D01*
X132226000Y-90698000D01*
X132246000Y-90588000D01*
X132246000Y-90458000D01*
X132246000Y-90358000D01*
X132246000Y-90248000D01*
X132246000Y-90138000D01*
X132246000Y-90028000D01*
X132246000Y-89918000D01*
X132246000Y-89808000D01*
X132246000Y-89698000D01*
X132246000Y-89588000D01*
X132206000Y-89588000D01*
X132156000Y-89588000D01*
X132106000Y-89588000D01*
X132056000Y-89588000D01*
X132006000Y-89588000D01*
X131956000Y-89588000D01*
X131906000Y-89588000D01*
X131866000Y-89588000D01*
X131866000Y-89688000D01*
X131866000Y-89788000D01*
X131866000Y-89888000D01*
X131866000Y-89988000D01*
X131866000Y-90088000D01*
X131866000Y-90188000D01*
X131866000Y-90288000D01*
X131866000Y-90388000D01*
X131856000Y-90468000D01*
X131846000Y-90548000D01*
X131836000Y-90608000D01*
X131806000Y-90648000D01*
X131776000Y-90688000D01*
X131726000Y-90718000D01*
X131676000Y-90728000D01*
X131616000Y-90738000D01*
X131536000Y-90728000D01*
X131476000Y-90718000D01*
X131426000Y-90688000D01*
X131386000Y-90648000D01*
X131356000Y-90588000D01*
X131326000Y-90518000D01*
X131316000Y-90438000D01*
X131316000Y-90338000D01*
X131316000Y-90238000D01*
X131316000Y-90148000D01*
X131316000Y-90058000D01*
X131316000Y-89968000D01*
X131316000Y-89868000D01*
X131316000Y-89778000D01*
X131316000Y-89688000D01*
X131316000Y-89588000D01*
X131266000Y-89588000D01*
X131216000Y-89588000D01*
X131166000Y-89588000D01*
X131116000Y-89588000D01*
X131066000Y-89588000D01*
X131016000Y-89588000D01*
X130976000Y-89588000D01*
X130926000Y-89588000D01*
X130926000Y-89768000D01*
X130926000Y-89948000D01*
X130926000Y-90118000D01*
X130926000Y-90298000D01*
X130926000Y-90478000D01*
X130926000Y-90658000D01*
X130926000Y-90828000D01*
X130926000Y-91008000D01*
G37*
G36*
X130716000Y-89588000D02*
G01*
X130666000Y-89588000D01*
X130616000Y-89588000D01*
X130576000Y-89588000D01*
X130526000Y-89588000D01*
X130486000Y-89588000D01*
X130436000Y-89588000D01*
X130386000Y-89588000D01*
X130346000Y-89588000D01*
X130346000Y-89618000D01*
X130346000Y-89638000D01*
X130346000Y-89668000D01*
X130346000Y-89688000D01*
X130346000Y-89718000D01*
X130346000Y-89738000D01*
X130346000Y-89768000D01*
X130346000Y-89788000D01*
X130336000Y-89788000D01*
X130296000Y-89728000D01*
X130256000Y-89688000D01*
X130206000Y-89648000D01*
X130146000Y-89608000D01*
X130086000Y-89588000D01*
X130026000Y-89568000D01*
X129966000Y-89558000D01*
X129906000Y-89558000D01*
X129766000Y-89568000D01*
X129656000Y-89598000D01*
X129566000Y-89648000D01*
X129496000Y-89718000D01*
X129446000Y-89798000D01*
X129416000Y-89898000D01*
X129396000Y-90008000D01*
X129386000Y-90138000D01*
X129386000Y-90248000D01*
X129386000Y-90358000D01*
X129386000Y-90458000D01*
X129386000Y-90568000D01*
X129386000Y-90678000D01*
X129386000Y-90788000D01*
X129386000Y-90898000D01*
X129386000Y-91008000D01*
X129436000Y-91008000D01*
X129486000Y-91008000D01*
X129536000Y-91008000D01*
X129586000Y-91008000D01*
X129636000Y-91008000D01*
X129686000Y-91008000D01*
X129726000Y-91008000D01*
X129776000Y-91008000D01*
X129776000Y-90908000D01*
X129776000Y-90808000D01*
X129776000Y-90708000D01*
X129776000Y-90608000D01*
X129776000Y-90508000D01*
X129776000Y-90408000D01*
X129776000Y-90308000D01*
X129776000Y-90208000D01*
X129786000Y-90128000D01*
X129796000Y-90058000D01*
X129806000Y-89998000D01*
X129836000Y-89948000D01*
X129866000Y-89908000D01*
X129916000Y-89878000D01*
X129966000Y-89868000D01*
X130026000Y-89858000D01*
X130106000Y-89868000D01*
X130166000Y-89878000D01*
X130216000Y-89908000D01*
X130256000Y-89958000D01*
X130286000Y-90008000D01*
X130316000Y-90078000D01*
X130326000Y-90168000D01*
X130326000Y-90268000D01*
X130326000Y-90358000D01*
X130326000Y-90448000D01*
X130326000Y-90538000D01*
X130326000Y-90638000D01*
X130326000Y-90728000D01*
X130326000Y-90818000D01*
X130326000Y-90918000D01*
X130326000Y-91008000D01*
X130376000Y-91008000D01*
X130426000Y-91008000D01*
X130476000Y-91008000D01*
X130526000Y-91008000D01*
X130576000Y-91008000D01*
X130616000Y-91008000D01*
X130666000Y-91008000D01*
X130716000Y-91008000D01*
X130716000Y-90828000D01*
X130716000Y-90648000D01*
X130716000Y-90478000D01*
X130716000Y-90298000D01*
X130716000Y-90118000D01*
X130716000Y-89948000D01*
X130716000Y-89768000D01*
X130716000Y-89588000D01*
G37*
G36*
X132466000Y-87168000D02*
G01*
X132466000Y-87188000D01*
X132466000Y-87218000D01*
X132466000Y-87248000D01*
X132476000Y-87278000D01*
X132486000Y-87308000D01*
X132516000Y-87328000D01*
X132546000Y-87338000D01*
X132576000Y-87338000D01*
X132616000Y-87338000D01*
X132656000Y-87318000D01*
X132696000Y-87298000D01*
X132726000Y-87278000D01*
X132766000Y-87248000D01*
X132796000Y-87228000D01*
X132826000Y-87198000D01*
X132846000Y-87158000D01*
X132866000Y-87128000D01*
X132876000Y-87088000D01*
X132886000Y-87058000D01*
X132876000Y-87028000D01*
X132866000Y-87008000D01*
X132856000Y-86978000D01*
X132836000Y-86948000D01*
X132796000Y-86918000D01*
X132756000Y-86898000D01*
X132706000Y-86888000D01*
X132666000Y-86878000D01*
X132636000Y-86878000D01*
X132606000Y-86888000D01*
X132586000Y-86888000D01*
X132576000Y-86888000D01*
X132586000Y-86878000D01*
X132626000Y-86848000D01*
X132686000Y-86818000D01*
X132766000Y-86788000D01*
X132856000Y-86758000D01*
X132956000Y-86758000D01*
X133066000Y-86778000D01*
X133176000Y-86838000D01*
X133266000Y-86918000D01*
X133316000Y-86988000D01*
X133346000Y-87078000D01*
X133346000Y-87158000D01*
X133326000Y-87248000D01*
X133276000Y-87338000D01*
X133206000Y-87418000D01*
X133126000Y-87508000D01*
X133056000Y-87588000D01*
X133026000Y-87658000D01*
X133026000Y-87728000D01*
X133046000Y-87788000D01*
X133086000Y-87838000D01*
X133146000Y-87878000D01*
X133226000Y-87898000D01*
X133306000Y-87898000D01*
X133356000Y-87888000D01*
X133406000Y-87868000D01*
X133436000Y-87848000D01*
X133466000Y-87818000D01*
X133486000Y-87778000D01*
X133496000Y-87748000D01*
X133496000Y-87718000D01*
X133486000Y-87688000D01*
X133466000Y-87658000D01*
X133446000Y-87638000D01*
X133426000Y-87618000D01*
X133396000Y-87608000D01*
X133376000Y-87598000D01*
X133356000Y-87588000D01*
X133346000Y-87578000D01*
X133366000Y-87568000D01*
X133386000Y-87568000D01*
X133426000Y-87558000D01*
X133466000Y-87558000D01*
X133506000Y-87558000D01*
X133566000Y-87568000D01*
X133616000Y-87588000D01*
X133666000Y-87608000D01*
X133706000Y-87638000D01*
X133756000Y-87668000D01*
X133786000Y-87718000D01*
X133816000Y-87778000D01*
X133836000Y-87838000D01*
X133846000Y-87928000D01*
X133856000Y-88018000D01*
X133856000Y-88178000D01*
X133856000Y-88338000D01*
X133856000Y-88498000D01*
X133856000Y-88658000D01*
X133856000Y-88818000D01*
X133856000Y-88978000D01*
X133856000Y-89138000D01*
X133856000Y-89298000D01*
X133846000Y-89298000D01*
X133826000Y-89268000D01*
X133796000Y-89238000D01*
X133766000Y-89198000D01*
X133716000Y-89148000D01*
X133666000Y-89088000D01*
X133606000Y-89028000D01*
X133556000Y-88958000D01*
X133486000Y-88888000D01*
X133426000Y-88828000D01*
X133376000Y-88768000D01*
X133326000Y-88728000D01*
X133276000Y-88688000D01*
X133226000Y-88658000D01*
X133166000Y-88648000D01*
X133096000Y-88648000D01*
X132976000Y-88648000D01*
X132856000Y-88628000D01*
X132746000Y-88598000D01*
X132646000Y-88558000D01*
X132546000Y-88498000D01*
X132466000Y-88428000D01*
X132386000Y-88348000D01*
X132316000Y-88258000D01*
X132216000Y-88078000D01*
X132166000Y-87898000D01*
X132156000Y-87718000D01*
X132186000Y-87558000D01*
X132236000Y-87418000D01*
X132306000Y-87298000D01*
X132386000Y-87208000D01*
X132466000Y-87168000D01*
G37*
%TO.C,LOGO2*%
G36*
X134225300Y-82486800D02*
G01*
X134073500Y-82408600D01*
X133696500Y-82716000D01*
X133438000Y-82457500D01*
X133745400Y-82080500D01*
X133615100Y-81766000D01*
X133131200Y-81716800D01*
X133131200Y-81351200D01*
X133615100Y-81302000D01*
X133745400Y-80987500D01*
X133438000Y-80610500D01*
X133696500Y-80352000D01*
X134073500Y-80659400D01*
X134225336Y-80581183D01*
X134388000Y-80529100D01*
X134437200Y-80045200D01*
X134802800Y-80045200D01*
X134852000Y-80529100D01*
X135166500Y-80659400D01*
X135543500Y-80352000D01*
X135802000Y-80610500D01*
X135494600Y-80987500D01*
X135624900Y-81302000D01*
X136108800Y-81351200D01*
X136108800Y-81716800D01*
X135624900Y-81766000D01*
X135494600Y-82080500D01*
X135802000Y-82457500D01*
X135543500Y-82716000D01*
X135166500Y-82408600D01*
X135092221Y-82450847D01*
X135014700Y-82486800D01*
X134799400Y-81967100D01*
X134799399Y-81967100D01*
X134951500Y-81865493D01*
X135088800Y-81534000D01*
X135066639Y-81391679D01*
X135002309Y-81262807D01*
X134901885Y-81159553D01*
X134774849Y-81091667D01*
X134633199Y-81065561D01*
X134490309Y-81083698D01*
X134359674Y-81144367D01*
X134253628Y-81241839D01*
X134182186Y-81366909D01*
X134152094Y-81507766D01*
X134166194Y-81651111D01*
X134223154Y-81783406D01*
X134317595Y-81892159D01*
X134440600Y-81967100D01*
X134225300Y-82486800D01*
G37*
%TD*%
%LPC*%
D13*
%TO.C,JP1*%
X140970000Y-95250000D03*
X138430000Y-95250000D03*
X135890000Y-95250000D03*
X133350000Y-95250000D03*
X130810000Y-95250000D03*
X128270000Y-95250000D03*
%TD*%
D14*
%TO.C,STANDOFF1*%
X129540000Y-78740000D03*
%TD*%
%TO.C,STANDOFF2*%
X139700000Y-78740000D03*
%TD*%
M02*
